%TF.GenerationSoftware,KiCad,Pcbnew,(6.0.0)*%
%TF.CreationDate,2022-03-21T15:13:20+09:00*%
%TF.ProjectId,MotorDriver base unit,4d6f746f-7244-4726-9976-657220626173,rev?*%
%TF.SameCoordinates,Original*%
%TF.FileFunction,Copper,L2,Bot*%
%TF.FilePolarity,Positive*%
%FSLAX46Y46*%
G04 Gerber Fmt 4.6, Leading zero omitted, Abs format (unit mm)*
G04 Created by KiCad (PCBNEW (6.0.0)) date 2022-03-21 15:13:20*
%MOMM*%
%LPD*%
G01*
G04 APERTURE LIST*
G04 Aperture macros list*
%AMRoundRect*
0 Rectangle with rounded corners*
0 $1 Rounding radius*
0 $2 $3 $4 $5 $6 $7 $8 $9 X,Y pos of 4 corners*
0 Add a 4 corners polygon primitive as box body*
4,1,4,$2,$3,$4,$5,$6,$7,$8,$9,$2,$3,0*
0 Add four circle primitives for the rounded corners*
1,1,$1+$1,$2,$3*
1,1,$1+$1,$4,$5*
1,1,$1+$1,$6,$7*
1,1,$1+$1,$8,$9*
0 Add four rect primitives between the rounded corners*
20,1,$1+$1,$2,$3,$4,$5,0*
20,1,$1+$1,$4,$5,$6,$7,0*
20,1,$1+$1,$6,$7,$8,$9,0*
20,1,$1+$1,$8,$9,$2,$3,0*%
G04 Aperture macros list end*
%TA.AperFunction,ComponentPad*%
%ADD10R,1.700000X1.700000*%
%TD*%
%TA.AperFunction,ComponentPad*%
%ADD11O,1.700000X1.700000*%
%TD*%
%TA.AperFunction,SMDPad,CuDef*%
%ADD12RoundRect,0.100000X-3.600000X-1.900000X3.600000X-1.900000X3.600000X1.900000X-3.600000X1.900000X0*%
%TD*%
%TA.AperFunction,SMDPad,CuDef*%
%ADD13RoundRect,0.102000X-3.598000X2.898000X-3.598000X-2.898000X3.598000X-2.898000X3.598000X2.898000X0*%
%TD*%
%TA.AperFunction,SMDPad,CuDef*%
%ADD14R,1.800000X2.500000*%
%TD*%
%TA.AperFunction,ViaPad*%
%ADD15C,0.800000*%
%TD*%
%TA.AperFunction,ViaPad*%
%ADD16C,1.000000*%
%TD*%
%TA.AperFunction,Conductor*%
%ADD17C,0.250000*%
%TD*%
G04 APERTURE END LIST*
D10*
%TO.P,J1,1*%
%TO.N,GNDA*%
X177165000Y-117475000D03*
D11*
%TO.P,J1,2*%
X177165000Y-120015000D03*
%TO.P,J1,3*%
X174625000Y-117475000D03*
%TO.P,J1,4*%
X174625000Y-120015000D03*
%TO.P,J1,5*%
X172085000Y-117475000D03*
%TO.P,J1,6*%
X172085000Y-120015000D03*
%TO.P,J1,7*%
X169545000Y-117475000D03*
%TO.P,J1,8*%
X169545000Y-120015000D03*
%TO.P,J1,9*%
X167005000Y-117475000D03*
%TO.P,J1,10*%
X167005000Y-120015000D03*
%TO.P,J1,11*%
X164465000Y-117475000D03*
%TO.P,J1,12*%
X164465000Y-120015000D03*
%TO.P,J1,13*%
X161925000Y-117475000D03*
%TO.P,J1,14*%
X161925000Y-120015000D03*
%TO.P,J1,15*%
X159385000Y-117475000D03*
%TO.P,J1,16*%
X159385000Y-120015000D03*
%TO.P,J1,17*%
X156845000Y-117475000D03*
%TO.P,J1,18*%
X156845000Y-120015000D03*
%TO.P,J1,19*%
X154305000Y-117475000D03*
%TO.P,J1,20*%
X154305000Y-120015000D03*
%TO.P,J1,21*%
%TO.N,+BATT*%
X151765000Y-117475000D03*
%TO.P,J1,22*%
X151765000Y-120015000D03*
%TO.P,J1,23*%
X149225000Y-117475000D03*
%TO.P,J1,24*%
X149225000Y-120015000D03*
%TO.P,J1,25*%
X146685000Y-117475000D03*
%TO.P,J1,26*%
X146685000Y-120015000D03*
%TO.P,J1,27*%
X144145000Y-117475000D03*
%TO.P,J1,28*%
X144145000Y-120015000D03*
%TO.P,J1,29*%
X141605000Y-117475000D03*
%TO.P,J1,30*%
X141605000Y-120015000D03*
%TO.P,J1,31*%
X139065000Y-117475000D03*
%TO.P,J1,32*%
X139065000Y-120015000D03*
%TO.P,J1,33*%
X136525000Y-117475000D03*
%TO.P,J1,34*%
X136525000Y-120015000D03*
%TO.P,J1,35*%
X133985000Y-117475000D03*
%TO.P,J1,36*%
X133985000Y-120015000D03*
%TO.P,J1,37*%
X131445000Y-117475000D03*
%TO.P,J1,38*%
X131445000Y-120015000D03*
%TO.P,J1,39*%
X128905000Y-117475000D03*
%TO.P,J1,40*%
X128905000Y-120015000D03*
%TO.P,J1,41*%
%TO.N,Net-(J1-Pad41)*%
X126365000Y-117475000D03*
%TO.P,J1,42*%
%TO.N,GND*%
X126365000Y-120015000D03*
%TO.P,J1,43*%
%TO.N,Net-(J1-Pad43)*%
X123825000Y-117475000D03*
%TO.P,J1,44*%
%TO.N,CCW_M1*%
X123825000Y-120015000D03*
%TO.P,J1,45*%
%TO.N,Net-(J1-Pad45)*%
X121285000Y-117475000D03*
%TO.P,J1,46*%
%TO.N,CW_M1*%
X121285000Y-120015000D03*
%TO.P,J1,47*%
%TO.N,SD_M1*%
X118745000Y-117475000D03*
%TO.P,J1,48*%
%TO.N,+5V*%
X118745000Y-120015000D03*
%TD*%
D12*
%TO.P,J7,1*%
%TO.N,Net-(C31-Pad2)*%
X175260000Y-92492000D03*
D13*
%TO.P,J7,2*%
%TO.N,Net-(C32-Pad2)*%
X175260000Y-85392000D03*
%TD*%
D14*
%TO.P,D71,1*%
%TO.N,Net-(C31-Pad2)*%
X153670000Y-95980000D03*
%TO.P,D71,2*%
%TO.N,Net-(C32-Pad2)*%
X153670000Y-91980000D03*
%TD*%
D15*
%TO.N,GND*%
X116840000Y-121285000D03*
X108585000Y-80645000D03*
X108585000Y-86360000D03*
X108585000Y-93345000D03*
X111125000Y-121285000D03*
X125095000Y-115570000D03*
X114300000Y-80645000D03*
X114300000Y-93345000D03*
X114300000Y-86360000D03*
X114300000Y-99695000D03*
X109220000Y-119380000D03*
X108585000Y-99695000D03*
%TO.N,GNDA*%
X139700000Y-99949000D03*
X140462000Y-98425000D03*
X139700000Y-98425000D03*
X139700000Y-99187000D03*
X138938000Y-98425000D03*
X138938000Y-99187000D03*
X140462000Y-99187000D03*
X138938000Y-99949000D03*
X140462000Y-99949000D03*
X138938000Y-81915000D03*
X119380000Y-107696000D03*
X175260000Y-106045000D03*
X134874000Y-90424000D03*
X136906000Y-80772000D03*
X131318000Y-98552000D03*
X175260000Y-111125000D03*
X122936000Y-98552000D03*
X117602000Y-103886000D03*
X120904000Y-99822000D03*
X116332000Y-85598000D03*
X116586000Y-80772000D03*
X136144000Y-114046000D03*
X138938000Y-82677000D03*
X126238000Y-81026000D03*
X131826000Y-92456000D03*
X116586000Y-96520000D03*
X123190000Y-107188000D03*
X125730000Y-94234000D03*
X171450000Y-113665000D03*
X116332000Y-92456000D03*
X134112000Y-114046000D03*
X177800000Y-95885000D03*
X177800000Y-106045000D03*
X122682000Y-87630000D03*
X122936000Y-81026000D03*
X129540000Y-92456000D03*
X177800000Y-111125000D03*
X139700000Y-81915000D03*
X128016000Y-107188000D03*
X131826000Y-114046000D03*
X129540000Y-114046000D03*
X115824000Y-101092000D03*
X130302000Y-107188000D03*
X140462000Y-81915000D03*
X138938000Y-83439000D03*
X140462000Y-82677000D03*
X137160000Y-93218000D03*
X176530000Y-103505000D03*
X132588000Y-107188000D03*
X172720000Y-111125000D03*
X129540000Y-81026000D03*
X176530000Y-108585000D03*
X134366000Y-107188000D03*
X139700000Y-83439000D03*
X125730000Y-84074000D03*
X120142000Y-87376000D03*
X176530000Y-113665000D03*
X132334000Y-82550000D03*
X118110000Y-100838000D03*
X126238000Y-90424000D03*
X116586000Y-106172000D03*
X136398000Y-87376000D03*
X125730000Y-107188000D03*
X116586000Y-89662000D03*
X140462000Y-83439000D03*
X131064000Y-88138000D03*
X120396000Y-94234000D03*
X173990000Y-113665000D03*
X139700000Y-82677000D03*
X175260000Y-95885000D03*
X123190000Y-92202000D03*
D16*
%TO.N,+BATT*%
X140462000Y-108331000D03*
X143510000Y-108331000D03*
X145542000Y-108331000D03*
X146558000Y-108331000D03*
X147574000Y-108331000D03*
X141478000Y-108331000D03*
X142494000Y-108331000D03*
X144526000Y-108331000D03*
X148590000Y-108331000D03*
X140462000Y-103251000D03*
X143510000Y-103251000D03*
X145542000Y-103251000D03*
X146558000Y-103251000D03*
X147574000Y-103251000D03*
X141478000Y-103251000D03*
X142494000Y-103251000D03*
X144526000Y-103251000D03*
X148590000Y-103251000D03*
X141478000Y-104267000D03*
X145542000Y-101219000D03*
X141478000Y-105283000D03*
X146558000Y-101219000D03*
X142494000Y-101219000D03*
X145542000Y-102235000D03*
X145542000Y-100203000D03*
X140462000Y-102235000D03*
X144526000Y-101219000D03*
X144526000Y-102235000D03*
X148590000Y-102235000D03*
X148590000Y-101219000D03*
X148590000Y-100203000D03*
X147574000Y-101219000D03*
X143510000Y-101219000D03*
X140462000Y-104267000D03*
X146558000Y-100203000D03*
X146558000Y-102235000D03*
X141478000Y-102235000D03*
X143510000Y-102235000D03*
X144526000Y-100203000D03*
X147574000Y-102235000D03*
X140462000Y-105283000D03*
X142494000Y-100203000D03*
X142494000Y-102235000D03*
X147574000Y-100203000D03*
X143510000Y-100203000D03*
X143510000Y-95123000D03*
X145542000Y-95123000D03*
X146558000Y-95123000D03*
X147574000Y-95123000D03*
X141478000Y-95123000D03*
X142494000Y-95123000D03*
X144526000Y-95123000D03*
X148590000Y-95123000D03*
X141478000Y-92075000D03*
X145542000Y-93091000D03*
X141478000Y-93091000D03*
X140462000Y-91059000D03*
X146558000Y-93091000D03*
X142494000Y-93091000D03*
X147574000Y-91059000D03*
X142494000Y-89027000D03*
X140462000Y-90043000D03*
X145542000Y-94107000D03*
X145542000Y-92075000D03*
X144526000Y-91059000D03*
X146558000Y-89027000D03*
X144526000Y-89027000D03*
X144526000Y-90043000D03*
X143510000Y-91059000D03*
X148590000Y-91059000D03*
X145542000Y-89027000D03*
X140462000Y-94107000D03*
X142494000Y-91059000D03*
X145542000Y-90043000D03*
X148590000Y-89027000D03*
X146558000Y-88011000D03*
X146558000Y-90043000D03*
X141478000Y-90043000D03*
X144526000Y-93091000D03*
X144526000Y-94107000D03*
X148590000Y-94107000D03*
X148590000Y-93091000D03*
X148590000Y-92075000D03*
X145542000Y-91059000D03*
X147574000Y-93091000D03*
X143510000Y-93091000D03*
X140462000Y-92075000D03*
X146558000Y-92075000D03*
X146558000Y-94107000D03*
X141478000Y-94107000D03*
X143510000Y-94107000D03*
X144526000Y-92075000D03*
X146558000Y-91059000D03*
X147574000Y-94107000D03*
X141478000Y-91059000D03*
X141478000Y-88011000D03*
X141478000Y-89027000D03*
X140462000Y-93091000D03*
X145542000Y-88011000D03*
X142494000Y-92075000D03*
X148590000Y-90043000D03*
X148590000Y-88011000D03*
X142494000Y-94107000D03*
X147574000Y-92075000D03*
X147574000Y-89027000D03*
X143510000Y-89027000D03*
X140462000Y-88011000D03*
X143510000Y-92075000D03*
X147574000Y-90043000D03*
X140462000Y-86995000D03*
X143510000Y-86995000D03*
X142494000Y-90043000D03*
X145542000Y-86995000D03*
X147574000Y-86995000D03*
X141478000Y-86995000D03*
X142494000Y-86995000D03*
X148590000Y-86995000D03*
X142494000Y-88011000D03*
X144526000Y-86995000D03*
X145542000Y-84963000D03*
X143510000Y-88011000D03*
X146558000Y-86995000D03*
X147574000Y-88011000D03*
X140462000Y-89027000D03*
X143510000Y-90043000D03*
X144526000Y-88011000D03*
X143510000Y-83947000D03*
X146558000Y-85979000D03*
X144526000Y-84963000D03*
X148590000Y-84963000D03*
X148590000Y-83947000D03*
X147574000Y-84963000D03*
X140462000Y-85979000D03*
X148590000Y-85979000D03*
X145542000Y-85979000D03*
X141478000Y-85979000D03*
X142494000Y-85979000D03*
X147574000Y-85979000D03*
X146558000Y-84963000D03*
X144526000Y-85979000D03*
X146558000Y-83947000D03*
X147574000Y-83947000D03*
X143510000Y-85979000D03*
X144526000Y-83947000D03*
X143510000Y-84963000D03*
X142494000Y-83947000D03*
X142494000Y-84963000D03*
X145542000Y-83947000D03*
X142494000Y-81915000D03*
X148590000Y-81915000D03*
X145542000Y-82931000D03*
X147574000Y-81915000D03*
X146558000Y-82931000D03*
X145542000Y-81915000D03*
X142494000Y-82931000D03*
X146558000Y-81915000D03*
X144526000Y-82931000D03*
X148590000Y-82931000D03*
X147574000Y-82931000D03*
X143510000Y-81915000D03*
X144526000Y-81915000D03*
X143510000Y-82931000D03*
X147574000Y-106299000D03*
X147574000Y-109347000D03*
X143510000Y-98171000D03*
X148590000Y-111379000D03*
X145542000Y-107315000D03*
X147574000Y-99187000D03*
X147574000Y-104267000D03*
X144526000Y-105283000D03*
X144526000Y-107315000D03*
X148590000Y-109347000D03*
X145542000Y-104267000D03*
X147574000Y-105283000D03*
X142494000Y-106299000D03*
X145542000Y-106299000D03*
X148590000Y-99187000D03*
X148590000Y-107315000D03*
X143510000Y-104267000D03*
X146558000Y-99187000D03*
X144526000Y-99187000D03*
X144526000Y-109347000D03*
X145542000Y-99187000D03*
X141478000Y-106299000D03*
X140462000Y-109347000D03*
X143510000Y-107315000D03*
X148590000Y-106299000D03*
X147574000Y-107315000D03*
X143510000Y-111379000D03*
X144526000Y-98171000D03*
X140462000Y-110363000D03*
X142494000Y-111379000D03*
X146558000Y-110363000D03*
X140462000Y-111379000D03*
X147574000Y-110363000D03*
X141478000Y-107315000D03*
X143510000Y-105283000D03*
X144526000Y-104267000D03*
X145542000Y-105283000D03*
X146558000Y-111379000D03*
X142494000Y-110363000D03*
X147574000Y-111379000D03*
X146558000Y-109347000D03*
X143510000Y-106299000D03*
X145542000Y-98171000D03*
X141478000Y-109347000D03*
X143510000Y-110363000D03*
X144526000Y-111379000D03*
X147574000Y-98171000D03*
X140462000Y-106299000D03*
X142494000Y-99187000D03*
X146558000Y-98171000D03*
X142494000Y-104267000D03*
X144526000Y-110363000D03*
X146558000Y-104267000D03*
X146558000Y-107315000D03*
X146558000Y-106299000D03*
X145542000Y-109347000D03*
X143510000Y-99187000D03*
X142494000Y-107315000D03*
X142494000Y-105283000D03*
X143510000Y-109347000D03*
X144526000Y-106299000D03*
X148590000Y-110363000D03*
X145542000Y-111379000D03*
X148590000Y-104267000D03*
X148590000Y-105283000D03*
X141478000Y-110363000D03*
X142494000Y-109347000D03*
X142494000Y-98171000D03*
X148590000Y-98171000D03*
X141478000Y-111379000D03*
X146558000Y-105283000D03*
X140462000Y-107315000D03*
X145542000Y-110363000D03*
D15*
%TO.N,CW_M1*%
X111035000Y-96520000D03*
%TO.N,CCW_M1*%
X111737390Y-83033577D03*
%TO.N,SD_M1*%
X111760000Y-89535000D03*
D16*
%TO.N,Net-(C31-Pad2)*%
X161798000Y-106299000D03*
X156718000Y-100203000D03*
X155702000Y-99187000D03*
X157734000Y-100203000D03*
X162814000Y-100203000D03*
X165862000Y-101219000D03*
X158750000Y-100203000D03*
X159766000Y-100203000D03*
X165862000Y-100203000D03*
X156718000Y-99187000D03*
X154686000Y-101219000D03*
X156718000Y-101219000D03*
X154686000Y-99187000D03*
X164846000Y-100203000D03*
X163830000Y-100203000D03*
X160782000Y-100203000D03*
X155702000Y-101219000D03*
X154686000Y-100203000D03*
X155702000Y-100203000D03*
X161798000Y-100203000D03*
X164846000Y-99187000D03*
X161798000Y-99187000D03*
X159766000Y-99187000D03*
X157734000Y-99187000D03*
X163830000Y-99187000D03*
X165862000Y-99187000D03*
X160782000Y-99187000D03*
X162814000Y-99187000D03*
X158750000Y-99187000D03*
X161798000Y-101219000D03*
X158750000Y-101219000D03*
X162814000Y-101219000D03*
X163830000Y-101219000D03*
X159766000Y-101219000D03*
X157734000Y-101219000D03*
X164846000Y-101219000D03*
X160782000Y-101219000D03*
X157734000Y-108331000D03*
X161798000Y-104267000D03*
X164846000Y-111379000D03*
X153670000Y-102235000D03*
X151638000Y-101219000D03*
X165862000Y-108331000D03*
X165862000Y-103251000D03*
X158750000Y-102235000D03*
X163830000Y-106299000D03*
X158750000Y-105283000D03*
X163830000Y-109347000D03*
X157734000Y-109347000D03*
X163830000Y-107315000D03*
X161798000Y-102235000D03*
X163830000Y-104267000D03*
X162814000Y-106299000D03*
D15*
X137160000Y-107950000D03*
D16*
X159766000Y-106299000D03*
X161798000Y-110363000D03*
X158750000Y-110363000D03*
X151638000Y-99187000D03*
X162814000Y-104267000D03*
X164846000Y-108331000D03*
X158750000Y-109347000D03*
X158750000Y-106299000D03*
X157734000Y-111379000D03*
X162814000Y-109347000D03*
X165862000Y-105283000D03*
X158750000Y-111379000D03*
X151638000Y-100203000D03*
X152654000Y-100203000D03*
X160782000Y-110363000D03*
X157734000Y-103251000D03*
X156718000Y-103251000D03*
X158750000Y-104267000D03*
X159766000Y-111379000D03*
X165862000Y-106299000D03*
X154686000Y-104267000D03*
X154686000Y-102235000D03*
X162814000Y-111379000D03*
X162814000Y-103251000D03*
X162814000Y-110363000D03*
X153670000Y-101219000D03*
D15*
X137160000Y-97790000D03*
D16*
X152654000Y-102235000D03*
X161798000Y-105283000D03*
X163830000Y-102235000D03*
X155702000Y-102235000D03*
X165862000Y-110363000D03*
X159766000Y-108331000D03*
X160782000Y-105283000D03*
X159766000Y-107315000D03*
X159766000Y-104267000D03*
X161798000Y-103251000D03*
X164846000Y-109347000D03*
X159766000Y-109347000D03*
X163830000Y-103251000D03*
X160782000Y-109347000D03*
X160782000Y-107315000D03*
X163830000Y-111379000D03*
X165862000Y-104267000D03*
X162814000Y-107315000D03*
X165862000Y-107315000D03*
X164846000Y-105283000D03*
X151638000Y-104267000D03*
X165862000Y-111379000D03*
X161798000Y-109347000D03*
X162814000Y-105283000D03*
X165862000Y-102235000D03*
X160782000Y-103251000D03*
X158750000Y-108331000D03*
X160782000Y-104267000D03*
X164846000Y-107315000D03*
X161798000Y-111379000D03*
X157734000Y-107315000D03*
X158750000Y-103251000D03*
X153670000Y-103251000D03*
X164846000Y-103251000D03*
X157734000Y-102235000D03*
X163830000Y-110363000D03*
X162814000Y-102235000D03*
X163830000Y-105283000D03*
X161798000Y-107315000D03*
X153670000Y-104267000D03*
X163830000Y-108331000D03*
X164846000Y-102235000D03*
X153670000Y-99187000D03*
X154686000Y-103251000D03*
X156718000Y-102235000D03*
X157734000Y-110363000D03*
X151638000Y-102235000D03*
X157734000Y-105283000D03*
X161798000Y-108331000D03*
X157734000Y-104267000D03*
X157734000Y-106299000D03*
X164846000Y-106299000D03*
X160782000Y-108331000D03*
X160782000Y-106299000D03*
X159766000Y-110363000D03*
X158750000Y-107315000D03*
X155702000Y-103251000D03*
X152654000Y-99187000D03*
X159766000Y-102235000D03*
X152654000Y-103251000D03*
X160782000Y-102235000D03*
X152654000Y-104267000D03*
X160782000Y-111379000D03*
X159766000Y-103251000D03*
X151638000Y-103251000D03*
X153670000Y-100203000D03*
X164846000Y-110363000D03*
X155702000Y-104267000D03*
X156718000Y-104267000D03*
X164846000Y-104267000D03*
X159766000Y-105283000D03*
X165862000Y-109347000D03*
X162814000Y-108331000D03*
X152654000Y-101219000D03*
%TO.N,Net-(C32-Pad2)*%
X156718000Y-86995000D03*
X152654000Y-83947000D03*
X155702000Y-85979000D03*
X157734000Y-86995000D03*
X152654000Y-88011000D03*
X162814000Y-86995000D03*
X153670000Y-83947000D03*
X165862000Y-88011000D03*
X153670000Y-86995000D03*
X152654000Y-84963000D03*
X158750000Y-86995000D03*
X153670000Y-84963000D03*
X159766000Y-86995000D03*
X153670000Y-82931000D03*
X165862000Y-86995000D03*
X151638000Y-86995000D03*
X156718000Y-85979000D03*
X154686000Y-88011000D03*
X152654000Y-85979000D03*
X152654000Y-86995000D03*
X156718000Y-88011000D03*
X154686000Y-85979000D03*
X153670000Y-85979000D03*
X151638000Y-85979000D03*
X151638000Y-84963000D03*
X151638000Y-88011000D03*
X164846000Y-86995000D03*
X153670000Y-88011000D03*
X163830000Y-86995000D03*
X160782000Y-86995000D03*
X155702000Y-88011000D03*
X151638000Y-82931000D03*
X154686000Y-86995000D03*
X152654000Y-82931000D03*
X155702000Y-86995000D03*
X161798000Y-86995000D03*
X151638000Y-83947000D03*
X164846000Y-85979000D03*
X165862000Y-84963000D03*
X161798000Y-83947000D03*
X162814000Y-84963000D03*
X161798000Y-85979000D03*
X165862000Y-83947000D03*
X159766000Y-85979000D03*
X162814000Y-83947000D03*
X157734000Y-85979000D03*
X164846000Y-82931000D03*
X154686000Y-82931000D03*
X163830000Y-85979000D03*
X155702000Y-83947000D03*
X158750000Y-82931000D03*
X161798000Y-84963000D03*
X159766000Y-84963000D03*
X165862000Y-85979000D03*
X163830000Y-83947000D03*
X156718000Y-83947000D03*
X159766000Y-83947000D03*
X155702000Y-84963000D03*
X161798000Y-82931000D03*
X157734000Y-82931000D03*
X159766000Y-82931000D03*
X158750000Y-83947000D03*
X163830000Y-82931000D03*
X160782000Y-83947000D03*
X165862000Y-82931000D03*
X155702000Y-82931000D03*
X154686000Y-83947000D03*
X157734000Y-84963000D03*
X154686000Y-84963000D03*
X164846000Y-83947000D03*
X160782000Y-85979000D03*
X157734000Y-83947000D03*
X160782000Y-82931000D03*
X162814000Y-82931000D03*
X156718000Y-84963000D03*
X160782000Y-84963000D03*
X156718000Y-82931000D03*
X158750000Y-84963000D03*
X164846000Y-84963000D03*
X163830000Y-84963000D03*
X162814000Y-85979000D03*
X158750000Y-85979000D03*
X159766000Y-94107000D03*
X162814000Y-92075000D03*
X162814000Y-95123000D03*
X157734000Y-94107000D03*
X157734000Y-93091000D03*
X157734000Y-92075000D03*
X159766000Y-92075000D03*
X158750000Y-94107000D03*
X160782000Y-92075000D03*
X157734000Y-95123000D03*
X165862000Y-92075000D03*
X161798000Y-93091000D03*
X159766000Y-95123000D03*
X158750000Y-95123000D03*
X158750000Y-93091000D03*
X165862000Y-93091000D03*
X164846000Y-93091000D03*
X158750000Y-92075000D03*
X161798000Y-95123000D03*
X164846000Y-94107000D03*
X165862000Y-95123000D03*
X162814000Y-94107000D03*
X165862000Y-94107000D03*
X162814000Y-93091000D03*
X164846000Y-92075000D03*
X163830000Y-95123000D03*
X160782000Y-94107000D03*
X163830000Y-92075000D03*
X160782000Y-93091000D03*
X159766000Y-93091000D03*
X164846000Y-95123000D03*
X160782000Y-95123000D03*
X163830000Y-94107000D03*
X163830000Y-93091000D03*
X161798000Y-94107000D03*
X161798000Y-92075000D03*
X159766000Y-91059000D03*
X158750000Y-89027000D03*
X161798000Y-88011000D03*
X158750000Y-88011000D03*
X162814000Y-88011000D03*
X164846000Y-90043000D03*
X157734000Y-91059000D03*
X158750000Y-90043000D03*
X160782000Y-90043000D03*
X162814000Y-91059000D03*
X158750000Y-91059000D03*
X162814000Y-90043000D03*
X163830000Y-88011000D03*
X163830000Y-89027000D03*
X160782000Y-89027000D03*
X159766000Y-88011000D03*
X160782000Y-91059000D03*
X157734000Y-90043000D03*
X163830000Y-90043000D03*
X161798000Y-89027000D03*
X157734000Y-88011000D03*
X164846000Y-88011000D03*
X165862000Y-91059000D03*
X164846000Y-91059000D03*
X161798000Y-91059000D03*
X161798000Y-90043000D03*
X165862000Y-90043000D03*
X164846000Y-89027000D03*
X157734000Y-89027000D03*
X159766000Y-90043000D03*
X159766000Y-89027000D03*
X160782000Y-88011000D03*
X165862000Y-89027000D03*
X163830000Y-91059000D03*
X162814000Y-89027000D03*
D15*
%TO.N,Net-(D27-Pad1)*%
X138212999Y-108585000D03*
X138049000Y-100457000D03*
%TO.N,Net-(D28-Pad1)*%
X136434990Y-100330000D03*
X136407732Y-107291126D03*
%TD*%
D17*
%TO.N,CW_M1*%
X116298589Y-118839999D02*
X111035000Y-113576410D01*
X111035000Y-113576410D02*
X111035000Y-96520000D01*
X120109999Y-118839999D02*
X116298589Y-118839999D01*
X121285000Y-120015000D02*
X120109999Y-118839999D01*
%TO.N,CCW_M1*%
X119214002Y-116205000D02*
X115570000Y-116205000D01*
X112485001Y-83781188D02*
X111737390Y-83033577D01*
X119920001Y-116910999D02*
X119214002Y-116205000D01*
X122460001Y-118650001D02*
X120556411Y-118650001D01*
X120556411Y-118650001D02*
X119920001Y-118013591D01*
X112485001Y-113120001D02*
X112485001Y-83781188D01*
X123825000Y-120015000D02*
X122460001Y-118650001D01*
X115570000Y-116205000D02*
X112485001Y-113120001D01*
X119920001Y-118013591D02*
X119920001Y-116910999D01*
%TO.N,SD_M1*%
X111760000Y-113665000D02*
X111760000Y-89535000D01*
X115570000Y-117475000D02*
X111760000Y-113665000D01*
X118745000Y-117475000D02*
X115570000Y-117475000D01*
%TO.N,Net-(C31-Pad2)*%
X137160000Y-97790000D02*
X137160000Y-107950000D01*
%TO.N,Net-(D27-Pad1)*%
X138212999Y-108167001D02*
X138212999Y-108585000D01*
X138212999Y-100620999D02*
X138049000Y-100457000D01*
X138212999Y-108167001D02*
X138212999Y-100620999D01*
%TO.N,Net-(D28-Pad1)*%
X136434990Y-100330000D02*
X136434990Y-107263868D01*
X136434990Y-107263868D02*
X136407732Y-107291126D01*
%TD*%
%TA.AperFunction,Conductor*%
%TO.N,GNDA*%
G36*
X138979657Y-79649002D02*
G01*
X139026150Y-79702658D01*
X139037216Y-79763977D01*
X138938000Y-81153000D01*
X140590000Y-81153000D01*
X140658121Y-81173002D01*
X140704614Y-81226658D01*
X140716000Y-81279000D01*
X140716000Y-83821000D01*
X140695998Y-83889121D01*
X140642342Y-83935614D01*
X140590000Y-83947000D01*
X138938000Y-83947000D01*
X138938000Y-94615000D01*
X138945761Y-94623315D01*
X140682113Y-96483693D01*
X140713970Y-96547141D01*
X140716000Y-96569665D01*
X140716000Y-100331000D01*
X140695998Y-100399121D01*
X140642342Y-100445614D01*
X140590000Y-100457000D01*
X138938000Y-100457000D01*
X138938000Y-100464794D01*
X138923442Y-100481595D01*
X138863716Y-100519979D01*
X138855870Y-100519979D01*
X138907106Y-100552802D01*
X138936692Y-100617340D01*
X138938000Y-100635451D01*
X138938000Y-108078510D01*
X138917998Y-108146631D01*
X138864342Y-108193124D01*
X138794068Y-108203228D01*
X138729488Y-108173734D01*
X138717539Y-108160365D01*
X138716877Y-108160949D01*
X138711854Y-108155251D01*
X138707552Y-108148992D01*
X138634680Y-108084065D01*
X138597125Y-108023816D01*
X138592499Y-107989989D01*
X138592499Y-100862871D01*
X138616175Y-100789347D01*
X138626755Y-100774624D01*
X138685842Y-100627641D01*
X138687257Y-100617699D01*
X138687995Y-100616076D01*
X138688878Y-100612782D01*
X138689427Y-100612929D01*
X138716657Y-100553076D01*
X138776328Y-100514606D01*
X138784340Y-100514594D01*
X138732993Y-100481596D01*
X138703130Y-100414220D01*
X138701303Y-100399121D01*
X138689276Y-100299733D01*
X138633280Y-100151546D01*
X138543553Y-100020992D01*
X138533717Y-100012228D01*
X138430946Y-99920664D01*
X138425275Y-99915611D01*
X138417889Y-99911700D01*
X138291988Y-99845039D01*
X138291989Y-99845039D01*
X138285274Y-99841484D01*
X138131633Y-99802892D01*
X138124034Y-99802852D01*
X138124033Y-99802852D01*
X138058181Y-99802507D01*
X137973221Y-99802062D01*
X137965841Y-99803834D01*
X137965839Y-99803834D01*
X137826563Y-99837271D01*
X137826560Y-99837272D01*
X137819184Y-99839043D01*
X137723289Y-99888538D01*
X137653583Y-99902007D01*
X137587659Y-99875652D01*
X137546450Y-99817840D01*
X137539500Y-99776572D01*
X137539500Y-98384730D01*
X137559502Y-98316609D01*
X137583669Y-98288919D01*
X137639536Y-98241204D01*
X137645314Y-98236269D01*
X137737755Y-98107624D01*
X137796842Y-97960641D01*
X137819162Y-97803807D01*
X137819307Y-97790000D01*
X137800276Y-97632733D01*
X137744280Y-97484546D01*
X137654553Y-97353992D01*
X137536275Y-97248611D01*
X137528889Y-97244700D01*
X137402988Y-97178039D01*
X137402989Y-97178039D01*
X137396274Y-97174484D01*
X137242633Y-97135892D01*
X137235034Y-97135852D01*
X137235033Y-97135852D01*
X137169181Y-97135507D01*
X137084221Y-97135062D01*
X137076841Y-97136834D01*
X137076839Y-97136834D01*
X136937563Y-97170271D01*
X136937560Y-97170272D01*
X136930184Y-97172043D01*
X136789414Y-97244700D01*
X136670039Y-97348838D01*
X136578950Y-97478444D01*
X136521406Y-97626037D01*
X136500729Y-97783096D01*
X136518113Y-97940553D01*
X136572553Y-98089319D01*
X136660908Y-98220805D01*
X136666527Y-98225918D01*
X136666528Y-98225919D01*
X136739299Y-98292135D01*
X136776222Y-98352775D01*
X136780500Y-98385329D01*
X136780500Y-99580359D01*
X136760498Y-99648480D01*
X136706842Y-99694973D01*
X136636568Y-99705077D01*
X136623807Y-99702564D01*
X136517623Y-99675892D01*
X136510024Y-99675852D01*
X136510023Y-99675852D01*
X136444171Y-99675507D01*
X136359211Y-99675062D01*
X136351831Y-99676834D01*
X136351829Y-99676834D01*
X136212553Y-99710271D01*
X136212550Y-99710272D01*
X136205174Y-99712043D01*
X136064404Y-99784700D01*
X135945029Y-99888838D01*
X135853940Y-100018444D01*
X135844117Y-100043639D01*
X135802046Y-100151546D01*
X135796396Y-100166037D01*
X135795404Y-100173570D01*
X135795404Y-100173571D01*
X135778795Y-100299733D01*
X135775719Y-100323096D01*
X135776553Y-100330646D01*
X135790503Y-100457000D01*
X135793103Y-100480553D01*
X135795713Y-100487684D01*
X135795713Y-100487686D01*
X135843291Y-100617699D01*
X135847543Y-100629319D01*
X135935898Y-100760805D01*
X135941517Y-100765918D01*
X135941518Y-100765919D01*
X136014289Y-100832135D01*
X136051212Y-100892775D01*
X136055490Y-100925329D01*
X136055490Y-106672534D01*
X136035488Y-106740655D01*
X136012320Y-106767483D01*
X135917771Y-106849964D01*
X135826682Y-106979570D01*
X135769138Y-107127163D01*
X135748461Y-107284222D01*
X135765845Y-107441679D01*
X135768455Y-107448810D01*
X135768455Y-107448812D01*
X135788587Y-107503824D01*
X135820285Y-107590445D01*
X135908640Y-107721931D01*
X135914259Y-107727044D01*
X135914260Y-107727045D01*
X136020192Y-107823435D01*
X136025808Y-107828545D01*
X136165025Y-107904134D01*
X136318254Y-107944333D01*
X136363767Y-107945048D01*
X136390113Y-107945462D01*
X136457911Y-107966531D01*
X136503556Y-108020911D01*
X136513373Y-108057619D01*
X136516293Y-108084066D01*
X136518113Y-108100553D01*
X136520723Y-108107684D01*
X136520723Y-108107686D01*
X136551989Y-108193124D01*
X136572553Y-108249319D01*
X136660908Y-108380805D01*
X136666527Y-108385918D01*
X136666528Y-108385919D01*
X136749444Y-108461366D01*
X136778076Y-108487419D01*
X136917293Y-108563008D01*
X137070522Y-108603207D01*
X137154477Y-108604526D01*
X137221319Y-108605576D01*
X137221322Y-108605576D01*
X137228916Y-108605695D01*
X137383332Y-108570329D01*
X137390117Y-108566917D01*
X137395904Y-108564833D01*
X137466773Y-108560576D01*
X137528693Y-108595310D01*
X137562005Y-108658006D01*
X137563825Y-108669551D01*
X137571112Y-108735553D01*
X137573722Y-108742684D01*
X137573722Y-108742686D01*
X137608726Y-108838338D01*
X137625552Y-108884319D01*
X137629788Y-108890622D01*
X137629788Y-108890623D01*
X137680009Y-108965359D01*
X137713907Y-109015805D01*
X137719526Y-109020918D01*
X137719527Y-109020919D01*
X137730902Y-109031269D01*
X137831075Y-109122419D01*
X137970292Y-109198008D01*
X138123521Y-109238207D01*
X138207476Y-109239526D01*
X138274318Y-109240576D01*
X138274321Y-109240576D01*
X138281915Y-109240695D01*
X138436331Y-109205329D01*
X138509632Y-109168463D01*
X138571071Y-109137563D01*
X138571074Y-109137561D01*
X138577854Y-109134151D01*
X138583625Y-109129222D01*
X138583628Y-109129220D01*
X138692535Y-109036204D01*
X138692535Y-109036203D01*
X138698313Y-109031269D01*
X138709678Y-109015453D01*
X138765672Y-108971805D01*
X138836376Y-108965359D01*
X138899340Y-108998162D01*
X138934574Y-109059798D01*
X138938000Y-109088979D01*
X138938000Y-112344692D01*
X138917998Y-112412813D01*
X138903350Y-112431474D01*
X136562257Y-114895782D01*
X136500837Y-114931394D01*
X136470907Y-114935000D01*
X127687190Y-114935000D01*
X127619069Y-114914998D01*
X127598095Y-114898095D01*
X121285000Y-108585000D01*
X117527190Y-108585000D01*
X117459069Y-108564998D01*
X117438095Y-108548095D01*
X115606905Y-106716905D01*
X115572879Y-106654593D01*
X115570000Y-106627810D01*
X115570000Y-79755000D01*
X115590002Y-79686879D01*
X115643658Y-79640386D01*
X115696000Y-79629000D01*
X138911536Y-79629000D01*
X138979657Y-79649002D01*
G37*
%TD.AperFunction*%
%TD*%
%TA.AperFunction,Conductor*%
%TO.N,GND*%
G36*
X114877121Y-79649002D02*
G01*
X114923614Y-79702658D01*
X114935000Y-79755000D01*
X114935000Y-107315000D01*
X116840000Y-109220000D01*
X120597810Y-109220000D01*
X120665931Y-109240002D01*
X120686905Y-109256905D01*
X126963095Y-115533095D01*
X126997121Y-115595407D01*
X127000000Y-115622190D01*
X127000000Y-116353171D01*
X126979998Y-116421292D01*
X126926342Y-116467785D01*
X126856068Y-116477889D01*
X126827310Y-116470201D01*
X126685403Y-116413586D01*
X126680039Y-116411446D01*
X126674379Y-116410320D01*
X126674375Y-116410319D01*
X126486613Y-116372971D01*
X126486610Y-116372971D01*
X126480946Y-116371844D01*
X126475171Y-116371768D01*
X126475167Y-116371768D01*
X126373793Y-116370441D01*
X126277971Y-116369187D01*
X126272274Y-116370166D01*
X126272273Y-116370166D01*
X126083607Y-116402585D01*
X126077910Y-116403564D01*
X125887463Y-116473824D01*
X125713010Y-116577612D01*
X125708670Y-116581418D01*
X125708666Y-116581421D01*
X125593998Y-116681983D01*
X125560392Y-116711455D01*
X125556817Y-116715990D01*
X125556816Y-116715991D01*
X125547008Y-116728432D01*
X125434720Y-116870869D01*
X125432031Y-116875980D01*
X125432029Y-116875983D01*
X125419073Y-116900609D01*
X125340203Y-117050515D01*
X125280007Y-117244378D01*
X125256148Y-117445964D01*
X125269424Y-117648522D01*
X125270845Y-117654118D01*
X125270846Y-117654123D01*
X125291119Y-117733945D01*
X125319392Y-117845269D01*
X125321809Y-117850512D01*
X125357416Y-117927749D01*
X125404377Y-118029616D01*
X125521533Y-118195389D01*
X125525675Y-118199424D01*
X125582637Y-118254913D01*
X125666938Y-118337035D01*
X125835720Y-118449812D01*
X125841023Y-118452090D01*
X125841026Y-118452092D01*
X125965321Y-118505493D01*
X126022228Y-118529942D01*
X126095244Y-118546464D01*
X126214579Y-118573467D01*
X126214584Y-118573468D01*
X126220216Y-118574742D01*
X126225987Y-118574969D01*
X126225989Y-118574969D01*
X126285756Y-118577317D01*
X126423053Y-118582712D01*
X126523499Y-118568148D01*
X126618231Y-118554413D01*
X126618236Y-118554412D01*
X126623945Y-118553584D01*
X126629409Y-118551729D01*
X126629414Y-118551728D01*
X126765616Y-118505493D01*
X126816165Y-118488334D01*
X126821214Y-118485507D01*
X126822749Y-118484823D01*
X126893116Y-118475387D01*
X126957413Y-118505493D01*
X126995228Y-118565581D01*
X127000000Y-118599929D01*
X127000000Y-118893710D01*
X126979998Y-118961831D01*
X126926342Y-119008324D01*
X126856068Y-119018428D01*
X126827310Y-119010740D01*
X126685260Y-118954068D01*
X126674232Y-118950801D01*
X126636769Y-118943350D01*
X126623894Y-118944502D01*
X126619000Y-118959658D01*
X126619000Y-121075681D01*
X126622966Y-121089187D01*
X126631672Y-121090433D01*
X126810488Y-121029733D01*
X126822751Y-121024273D01*
X126893118Y-121014839D01*
X126957415Y-121044945D01*
X126995229Y-121105034D01*
X127000000Y-121139380D01*
X127000000Y-122175000D01*
X126979998Y-122243121D01*
X126926342Y-122289614D01*
X126874000Y-122301000D01*
X108622425Y-122301000D01*
X108597847Y-122298579D01*
X108585000Y-122296024D01*
X108572828Y-122298445D01*
X108561301Y-122298445D01*
X108550320Y-122297966D01*
X108528122Y-122296024D01*
X108419551Y-122286525D01*
X108397930Y-122282713D01*
X108248152Y-122242580D01*
X108227516Y-122235069D01*
X108086990Y-122169540D01*
X108067970Y-122158558D01*
X107940954Y-122069621D01*
X107924129Y-122055503D01*
X107814497Y-121945871D01*
X107800379Y-121929046D01*
X107711442Y-121802030D01*
X107700460Y-121783010D01*
X107634931Y-121642484D01*
X107627419Y-121621846D01*
X107587287Y-121472070D01*
X107583474Y-121450446D01*
X107572034Y-121319680D01*
X107571555Y-121308699D01*
X107571555Y-121297172D01*
X107573976Y-121285000D01*
X107571421Y-121272153D01*
X107569000Y-121247575D01*
X107569000Y-96513096D01*
X110375729Y-96513096D01*
X110393113Y-96670553D01*
X110447553Y-96819319D01*
X110535908Y-96950805D01*
X110541527Y-96955918D01*
X110541528Y-96955919D01*
X110614299Y-97022135D01*
X110651222Y-97082775D01*
X110655500Y-97115329D01*
X110655500Y-113522490D01*
X110652951Y-113546438D01*
X110652872Y-113548103D01*
X110650680Y-113558286D01*
X110651904Y-113568627D01*
X110654627Y-113591633D01*
X110654977Y-113597564D01*
X110655072Y-113597556D01*
X110655500Y-113602734D01*
X110655500Y-113607934D01*
X110656354Y-113613063D01*
X110656354Y-113613066D01*
X110658669Y-113626975D01*
X110659506Y-113632853D01*
X110665530Y-113683751D01*
X110669493Y-113692003D01*
X110670996Y-113701036D01*
X110675943Y-113710205D01*
X110675944Y-113710207D01*
X110695334Y-113746142D01*
X110698031Y-113751435D01*
X110716785Y-113790492D01*
X110716788Y-113790496D01*
X110720219Y-113797642D01*
X110723814Y-113801918D01*
X110725737Y-113803841D01*
X110727509Y-113805773D01*
X110727552Y-113805852D01*
X110727428Y-113805965D01*
X110727904Y-113806505D01*
X110730990Y-113812224D01*
X110738635Y-113819291D01*
X110770586Y-113848826D01*
X110774152Y-113852256D01*
X115992111Y-119070215D01*
X116007253Y-119088963D01*
X116008368Y-119090188D01*
X116014018Y-119098939D01*
X116022196Y-119105386D01*
X116022198Y-119105388D01*
X116040389Y-119119728D01*
X116044830Y-119123674D01*
X116044892Y-119123601D01*
X116048856Y-119126960D01*
X116052533Y-119130637D01*
X116068281Y-119141891D01*
X116072951Y-119145397D01*
X116113236Y-119177155D01*
X116121870Y-119180187D01*
X116129323Y-119185513D01*
X116178439Y-119200202D01*
X116184081Y-119202035D01*
X116224956Y-119216389D01*
X116232440Y-119219017D01*
X116238005Y-119219499D01*
X116240713Y-119219499D01*
X116243347Y-119219613D01*
X116243445Y-119219642D01*
X116243438Y-119219806D01*
X116244142Y-119219850D01*
X116250367Y-119221712D01*
X116304224Y-119219596D01*
X116309171Y-119219499D01*
X117707564Y-119219499D01*
X117775685Y-119239501D01*
X117822178Y-119293157D01*
X117832282Y-119363431D01*
X117814503Y-119410755D01*
X117814720Y-119410869D01*
X117720203Y-119590515D01*
X117660007Y-119784378D01*
X117636148Y-119985964D01*
X117649424Y-120188522D01*
X117650845Y-120194118D01*
X117650846Y-120194123D01*
X117697927Y-120379502D01*
X117699392Y-120385269D01*
X117701809Y-120390512D01*
X117739010Y-120471208D01*
X117784377Y-120569616D01*
X117901533Y-120735389D01*
X118046938Y-120877035D01*
X118215720Y-120989812D01*
X118221023Y-120992090D01*
X118221026Y-120992092D01*
X118395811Y-121067185D01*
X118402228Y-121069942D01*
X118467140Y-121084630D01*
X118594579Y-121113467D01*
X118594584Y-121113468D01*
X118600216Y-121114742D01*
X118605987Y-121114969D01*
X118605989Y-121114969D01*
X118665756Y-121117317D01*
X118803053Y-121122712D01*
X118903499Y-121108148D01*
X118998231Y-121094413D01*
X118998236Y-121094412D01*
X119003945Y-121093584D01*
X119009409Y-121091729D01*
X119009414Y-121091728D01*
X119190693Y-121030192D01*
X119190698Y-121030190D01*
X119196165Y-121028334D01*
X119203417Y-121024273D01*
X119271470Y-120986161D01*
X119373276Y-120929147D01*
X119435934Y-120877035D01*
X119524913Y-120803031D01*
X119529345Y-120799345D01*
X119659147Y-120643276D01*
X119758334Y-120466165D01*
X119760190Y-120460698D01*
X119760192Y-120460693D01*
X119821728Y-120279414D01*
X119821729Y-120279409D01*
X119823584Y-120273945D01*
X119824412Y-120268236D01*
X119824413Y-120268231D01*
X119852179Y-120076727D01*
X119852712Y-120073053D01*
X119854232Y-120015000D01*
X119835658Y-119812859D01*
X119834090Y-119807299D01*
X119782125Y-119623046D01*
X119782124Y-119623044D01*
X119780557Y-119617487D01*
X119769978Y-119596033D01*
X119693331Y-119440609D01*
X119690776Y-119435428D01*
X119679920Y-119420890D01*
X119655187Y-119354341D01*
X119670359Y-119284984D01*
X119720620Y-119234841D01*
X119780876Y-119219499D01*
X119900615Y-119219499D01*
X119968736Y-119239501D01*
X119989710Y-119256404D01*
X120221477Y-119488171D01*
X120255503Y-119550483D01*
X120252715Y-119614630D01*
X120200007Y-119784378D01*
X120176148Y-119985964D01*
X120189424Y-120188522D01*
X120190845Y-120194118D01*
X120190846Y-120194123D01*
X120237927Y-120379502D01*
X120239392Y-120385269D01*
X120241809Y-120390512D01*
X120279010Y-120471208D01*
X120324377Y-120569616D01*
X120441533Y-120735389D01*
X120586938Y-120877035D01*
X120755720Y-120989812D01*
X120761023Y-120992090D01*
X120761026Y-120992092D01*
X120935811Y-121067185D01*
X120942228Y-121069942D01*
X121007140Y-121084630D01*
X121134579Y-121113467D01*
X121134584Y-121113468D01*
X121140216Y-121114742D01*
X121145987Y-121114969D01*
X121145989Y-121114969D01*
X121205756Y-121117317D01*
X121343053Y-121122712D01*
X121443499Y-121108148D01*
X121538231Y-121094413D01*
X121538236Y-121094412D01*
X121543945Y-121093584D01*
X121549409Y-121091729D01*
X121549414Y-121091728D01*
X121730693Y-121030192D01*
X121730698Y-121030190D01*
X121736165Y-121028334D01*
X121743417Y-121024273D01*
X121811470Y-120986161D01*
X121913276Y-120929147D01*
X121975934Y-120877035D01*
X122064913Y-120803031D01*
X122069345Y-120799345D01*
X122199147Y-120643276D01*
X122298334Y-120466165D01*
X122300190Y-120460698D01*
X122300192Y-120460693D01*
X122361728Y-120279414D01*
X122361729Y-120279409D01*
X122363584Y-120273945D01*
X122364412Y-120268236D01*
X122364413Y-120268231D01*
X122392179Y-120076727D01*
X122392712Y-120073053D01*
X122394232Y-120015000D01*
X122375658Y-119812859D01*
X122374090Y-119807299D01*
X122322125Y-119623046D01*
X122322124Y-119623044D01*
X122320557Y-119617487D01*
X122309978Y-119596033D01*
X122233331Y-119440609D01*
X122230776Y-119435428D01*
X122109320Y-119272779D01*
X122082541Y-119248025D01*
X122046096Y-119187098D01*
X122048376Y-119116138D01*
X122088659Y-119057675D01*
X122154153Y-119030272D01*
X122168070Y-119029501D01*
X122250617Y-119029501D01*
X122318738Y-119049503D01*
X122339712Y-119066406D01*
X122761477Y-119488171D01*
X122795503Y-119550483D01*
X122792715Y-119614630D01*
X122740007Y-119784378D01*
X122716148Y-119985964D01*
X122729424Y-120188522D01*
X122730845Y-120194118D01*
X122730846Y-120194123D01*
X122777927Y-120379502D01*
X122779392Y-120385269D01*
X122781809Y-120390512D01*
X122819010Y-120471208D01*
X122864377Y-120569616D01*
X122981533Y-120735389D01*
X123126938Y-120877035D01*
X123295720Y-120989812D01*
X123301023Y-120992090D01*
X123301026Y-120992092D01*
X123475811Y-121067185D01*
X123482228Y-121069942D01*
X123547140Y-121084630D01*
X123674579Y-121113467D01*
X123674584Y-121113468D01*
X123680216Y-121114742D01*
X123685987Y-121114969D01*
X123685989Y-121114969D01*
X123745756Y-121117317D01*
X123883053Y-121122712D01*
X123983499Y-121108148D01*
X124078231Y-121094413D01*
X124078236Y-121094412D01*
X124083945Y-121093584D01*
X124089409Y-121091729D01*
X124089414Y-121091728D01*
X124270693Y-121030192D01*
X124270698Y-121030190D01*
X124276165Y-121028334D01*
X124283417Y-121024273D01*
X124351470Y-120986161D01*
X124453276Y-120929147D01*
X124515934Y-120877035D01*
X124604913Y-120803031D01*
X124609345Y-120799345D01*
X124739147Y-120643276D01*
X124838334Y-120466165D01*
X124840190Y-120460698D01*
X124840192Y-120460693D01*
X124900863Y-120281962D01*
X125293671Y-120281962D01*
X125318443Y-120379502D01*
X125322284Y-120390348D01*
X125402394Y-120564120D01*
X125408145Y-120574081D01*
X125518579Y-120730343D01*
X125526057Y-120739098D01*
X125663114Y-120872612D01*
X125672058Y-120879855D01*
X125831156Y-120986161D01*
X125841266Y-120991651D01*
X126017077Y-121067185D01*
X126028020Y-121070740D01*
X126093332Y-121085519D01*
X126107405Y-121084630D01*
X126111000Y-121075232D01*
X126111000Y-120287115D01*
X126106525Y-120271876D01*
X126105135Y-120270671D01*
X126097452Y-120269000D01*
X125308494Y-120269000D01*
X125294963Y-120272973D01*
X125293671Y-120281962D01*
X124900863Y-120281962D01*
X124901728Y-120279414D01*
X124901729Y-120279409D01*
X124903584Y-120273945D01*
X124904412Y-120268236D01*
X124904413Y-120268231D01*
X124932179Y-120076727D01*
X124932712Y-120073053D01*
X124934232Y-120015000D01*
X124915658Y-119812859D01*
X124914090Y-119807299D01*
X124900129Y-119757799D01*
X125292943Y-119757799D01*
X125299675Y-119761000D01*
X126092885Y-119761000D01*
X126108124Y-119756525D01*
X126109329Y-119755135D01*
X126111000Y-119747452D01*
X126111000Y-118956500D01*
X126107194Y-118943538D01*
X126092279Y-118941602D01*
X126083732Y-118943071D01*
X126072620Y-118946048D01*
X125893095Y-119012279D01*
X125882717Y-119017229D01*
X125718273Y-119115063D01*
X125708961Y-119121829D01*
X125565097Y-119247994D01*
X125557180Y-119256337D01*
X125438718Y-119406605D01*
X125432450Y-119416256D01*
X125343358Y-119585592D01*
X125338953Y-119596227D01*
X125293162Y-119743698D01*
X125292943Y-119757799D01*
X124900129Y-119757799D01*
X124862125Y-119623046D01*
X124862124Y-119623044D01*
X124860557Y-119617487D01*
X124849978Y-119596033D01*
X124773331Y-119440609D01*
X124770776Y-119435428D01*
X124649320Y-119272779D01*
X124511550Y-119145425D01*
X124504503Y-119138911D01*
X124500258Y-119134987D01*
X124495375Y-119131906D01*
X124495371Y-119131903D01*
X124349728Y-119040010D01*
X124328581Y-119026667D01*
X124140039Y-118951446D01*
X124134379Y-118950320D01*
X124134375Y-118950319D01*
X123946613Y-118912971D01*
X123946610Y-118912971D01*
X123940946Y-118911844D01*
X123935171Y-118911768D01*
X123935167Y-118911768D01*
X123833793Y-118910441D01*
X123737971Y-118909187D01*
X123732274Y-118910166D01*
X123732273Y-118910166D01*
X123549328Y-118941602D01*
X123537910Y-118943564D01*
X123432671Y-118982389D01*
X123361839Y-118987201D01*
X123299966Y-118953272D01*
X122766479Y-118419785D01*
X122751337Y-118401037D01*
X122750222Y-118399812D01*
X122744572Y-118391061D01*
X122736394Y-118384614D01*
X122736392Y-118384612D01*
X122718201Y-118370272D01*
X122713760Y-118366326D01*
X122713698Y-118366399D01*
X122709734Y-118363040D01*
X122706057Y-118359363D01*
X122690309Y-118348109D01*
X122685639Y-118344603D01*
X122645354Y-118312845D01*
X122636720Y-118309813D01*
X122629267Y-118304487D01*
X122580151Y-118289798D01*
X122574509Y-118287965D01*
X122533634Y-118273611D01*
X122533633Y-118273611D01*
X122526150Y-118270983D01*
X122520585Y-118270501D01*
X122517877Y-118270501D01*
X122515243Y-118270387D01*
X122515145Y-118270358D01*
X122515152Y-118270194D01*
X122514448Y-118270150D01*
X122508223Y-118268288D01*
X122454366Y-118270404D01*
X122449419Y-118270501D01*
X122320473Y-118270501D01*
X122252352Y-118250499D01*
X122205859Y-118196843D01*
X122195755Y-118126569D01*
X122210537Y-118082937D01*
X122298334Y-117926165D01*
X122300190Y-117920698D01*
X122300192Y-117920693D01*
X122361728Y-117739414D01*
X122361729Y-117739409D01*
X122363584Y-117733945D01*
X122364412Y-117728236D01*
X122364413Y-117728231D01*
X122392179Y-117536727D01*
X122392712Y-117533053D01*
X122394232Y-117475000D01*
X122391564Y-117445964D01*
X122716148Y-117445964D01*
X122729424Y-117648522D01*
X122730845Y-117654118D01*
X122730846Y-117654123D01*
X122751119Y-117733945D01*
X122779392Y-117845269D01*
X122781809Y-117850512D01*
X122817416Y-117927749D01*
X122864377Y-118029616D01*
X122981533Y-118195389D01*
X122985675Y-118199424D01*
X123042637Y-118254913D01*
X123126938Y-118337035D01*
X123295720Y-118449812D01*
X123301023Y-118452090D01*
X123301026Y-118452092D01*
X123425321Y-118505493D01*
X123482228Y-118529942D01*
X123555244Y-118546464D01*
X123674579Y-118573467D01*
X123674584Y-118573468D01*
X123680216Y-118574742D01*
X123685987Y-118574969D01*
X123685989Y-118574969D01*
X123745756Y-118577317D01*
X123883053Y-118582712D01*
X123983499Y-118568148D01*
X124078231Y-118554413D01*
X124078236Y-118554412D01*
X124083945Y-118553584D01*
X124089409Y-118551729D01*
X124089414Y-118551728D01*
X124270693Y-118490192D01*
X124270698Y-118490190D01*
X124276165Y-118488334D01*
X124282435Y-118484823D01*
X124372526Y-118434369D01*
X124453276Y-118389147D01*
X124480628Y-118366399D01*
X124597127Y-118269507D01*
X124609345Y-118259345D01*
X124666463Y-118190669D01*
X124735453Y-118107718D01*
X124735455Y-118107715D01*
X124739147Y-118103276D01*
X124838334Y-117926165D01*
X124840190Y-117920698D01*
X124840192Y-117920693D01*
X124901728Y-117739414D01*
X124901729Y-117739409D01*
X124903584Y-117733945D01*
X124904412Y-117728236D01*
X124904413Y-117728231D01*
X124932179Y-117536727D01*
X124932712Y-117533053D01*
X124934232Y-117475000D01*
X124915658Y-117272859D01*
X124914090Y-117267299D01*
X124862125Y-117083046D01*
X124862124Y-117083044D01*
X124860557Y-117077487D01*
X124849978Y-117056033D01*
X124773331Y-116900609D01*
X124770776Y-116895428D01*
X124765530Y-116888402D01*
X124690933Y-116788506D01*
X124649320Y-116732779D01*
X124500258Y-116594987D01*
X124495375Y-116591906D01*
X124495371Y-116591903D01*
X124333464Y-116489748D01*
X124328581Y-116486667D01*
X124140039Y-116411446D01*
X124134379Y-116410320D01*
X124134375Y-116410319D01*
X123946613Y-116372971D01*
X123946610Y-116372971D01*
X123940946Y-116371844D01*
X123935171Y-116371768D01*
X123935167Y-116371768D01*
X123833793Y-116370441D01*
X123737971Y-116369187D01*
X123732274Y-116370166D01*
X123732273Y-116370166D01*
X123543607Y-116402585D01*
X123537910Y-116403564D01*
X123347463Y-116473824D01*
X123173010Y-116577612D01*
X123168670Y-116581418D01*
X123168666Y-116581421D01*
X123053998Y-116681983D01*
X123020392Y-116711455D01*
X123016817Y-116715990D01*
X123016816Y-116715991D01*
X123007008Y-116728432D01*
X122894720Y-116870869D01*
X122892031Y-116875980D01*
X122892029Y-116875983D01*
X122879073Y-116900609D01*
X122800203Y-117050515D01*
X122740007Y-117244378D01*
X122716148Y-117445964D01*
X122391564Y-117445964D01*
X122375658Y-117272859D01*
X122374090Y-117267299D01*
X122322125Y-117083046D01*
X122322124Y-117083044D01*
X122320557Y-117077487D01*
X122309978Y-117056033D01*
X122233331Y-116900609D01*
X122230776Y-116895428D01*
X122225530Y-116888402D01*
X122150933Y-116788506D01*
X122109320Y-116732779D01*
X121960258Y-116594987D01*
X121955375Y-116591906D01*
X121955371Y-116591903D01*
X121793464Y-116489748D01*
X121788581Y-116486667D01*
X121600039Y-116411446D01*
X121594379Y-116410320D01*
X121594375Y-116410319D01*
X121406613Y-116372971D01*
X121406610Y-116372971D01*
X121400946Y-116371844D01*
X121395171Y-116371768D01*
X121395167Y-116371768D01*
X121293793Y-116370441D01*
X121197971Y-116369187D01*
X121192274Y-116370166D01*
X121192273Y-116370166D01*
X121003607Y-116402585D01*
X120997910Y-116403564D01*
X120807463Y-116473824D01*
X120633010Y-116577612D01*
X120628670Y-116581418D01*
X120628666Y-116581421D01*
X120513998Y-116681983D01*
X120480392Y-116711455D01*
X120476817Y-116715990D01*
X120476814Y-116715993D01*
X120459304Y-116738204D01*
X120401422Y-116779317D01*
X120330502Y-116782609D01*
X120269060Y-116747037D01*
X120246774Y-116714742D01*
X120234781Y-116689767D01*
X120231187Y-116685491D01*
X120229247Y-116683551D01*
X120227494Y-116681640D01*
X120227445Y-116681550D01*
X120227568Y-116681438D01*
X120227096Y-116680903D01*
X120224011Y-116675185D01*
X120184414Y-116638582D01*
X120180849Y-116635153D01*
X119520480Y-115974784D01*
X119505338Y-115956036D01*
X119504223Y-115954811D01*
X119498573Y-115946060D01*
X119490395Y-115939613D01*
X119490393Y-115939611D01*
X119472202Y-115925271D01*
X119467761Y-115921325D01*
X119467699Y-115921398D01*
X119463735Y-115918039D01*
X119460058Y-115914362D01*
X119444310Y-115903108D01*
X119439640Y-115899602D01*
X119399355Y-115867844D01*
X119390721Y-115864812D01*
X119383268Y-115859486D01*
X119334152Y-115844797D01*
X119328510Y-115842964D01*
X119287635Y-115828610D01*
X119287634Y-115828610D01*
X119280151Y-115825982D01*
X119274586Y-115825500D01*
X119271878Y-115825500D01*
X119269244Y-115825386D01*
X119269146Y-115825357D01*
X119269153Y-115825193D01*
X119268449Y-115825149D01*
X119262224Y-115823287D01*
X119208367Y-115825403D01*
X119203420Y-115825500D01*
X115779384Y-115825500D01*
X115711263Y-115805498D01*
X115690289Y-115788595D01*
X112901406Y-112999712D01*
X112867380Y-112937400D01*
X112864501Y-112910617D01*
X112864501Y-83835113D01*
X112867051Y-83811155D01*
X112867129Y-83809496D01*
X112869322Y-83799312D01*
X112868098Y-83788970D01*
X112868098Y-83788967D01*
X112865375Y-83765967D01*
X112865025Y-83760036D01*
X112864929Y-83760044D01*
X112864501Y-83754868D01*
X112864501Y-83749664D01*
X112861328Y-83730600D01*
X112860497Y-83724754D01*
X112856297Y-83689272D01*
X112854471Y-83673847D01*
X112850508Y-83665595D01*
X112849005Y-83656562D01*
X112824666Y-83611454D01*
X112821970Y-83606163D01*
X112803216Y-83567107D01*
X112803215Y-83567106D01*
X112799782Y-83559956D01*
X112796188Y-83555681D01*
X112794263Y-83553756D01*
X112792492Y-83551826D01*
X112792446Y-83551741D01*
X112792569Y-83551629D01*
X112792097Y-83551094D01*
X112789011Y-83545374D01*
X112749414Y-83508771D01*
X112745849Y-83505342D01*
X112427533Y-83187026D01*
X112393507Y-83124714D01*
X112391885Y-83080178D01*
X112395971Y-83051469D01*
X112395971Y-83051463D01*
X112396552Y-83047384D01*
X112396697Y-83033577D01*
X112377666Y-82876310D01*
X112321670Y-82728123D01*
X112231943Y-82597569D01*
X112113665Y-82492188D01*
X112106279Y-82488277D01*
X111980378Y-82421616D01*
X111980379Y-82421616D01*
X111973664Y-82418061D01*
X111820023Y-82379469D01*
X111812424Y-82379429D01*
X111812423Y-82379429D01*
X111746571Y-82379084D01*
X111661611Y-82378639D01*
X111654231Y-82380411D01*
X111654229Y-82380411D01*
X111514953Y-82413848D01*
X111514950Y-82413849D01*
X111507574Y-82415620D01*
X111366804Y-82488277D01*
X111247429Y-82592415D01*
X111156340Y-82722021D01*
X111098796Y-82869614D01*
X111078119Y-83026673D01*
X111080406Y-83047384D01*
X111090908Y-83142507D01*
X111095503Y-83184130D01*
X111149943Y-83332896D01*
X111238298Y-83464382D01*
X111243917Y-83469495D01*
X111243918Y-83469496D01*
X111337863Y-83554979D01*
X111355466Y-83570996D01*
X111494683Y-83646585D01*
X111647912Y-83686784D01*
X111744528Y-83688302D01*
X111806162Y-83689270D01*
X111873960Y-83710339D01*
X111893278Y-83726159D01*
X112068596Y-83901477D01*
X112102622Y-83963789D01*
X112105501Y-83990572D01*
X112105501Y-88785357D01*
X112085499Y-88853478D01*
X112031843Y-88899971D01*
X111961569Y-88910075D01*
X111948812Y-88907562D01*
X111842633Y-88880892D01*
X111835034Y-88880852D01*
X111835033Y-88880852D01*
X111769181Y-88880507D01*
X111684221Y-88880062D01*
X111676841Y-88881834D01*
X111676839Y-88881834D01*
X111537563Y-88915271D01*
X111537560Y-88915272D01*
X111530184Y-88917043D01*
X111389414Y-88989700D01*
X111270039Y-89093838D01*
X111178950Y-89223444D01*
X111176190Y-89230524D01*
X111127056Y-89356546D01*
X111121406Y-89371037D01*
X111120414Y-89378570D01*
X111120414Y-89378571D01*
X111103805Y-89504733D01*
X111100729Y-89528096D01*
X111101563Y-89535646D01*
X111115513Y-89662000D01*
X111118113Y-89685553D01*
X111120723Y-89692684D01*
X111120723Y-89692686D01*
X111163099Y-89808484D01*
X111172553Y-89834319D01*
X111260908Y-89965805D01*
X111266527Y-89970918D01*
X111266528Y-89970919D01*
X111339299Y-90037135D01*
X111376222Y-90097775D01*
X111380500Y-90130329D01*
X111380500Y-95770356D01*
X111360498Y-95838477D01*
X111306842Y-95884970D01*
X111236568Y-95895074D01*
X111223805Y-95892560D01*
X111125004Y-95867743D01*
X111125000Y-95867743D01*
X111117633Y-95865892D01*
X111110034Y-95865852D01*
X111110033Y-95865852D01*
X111044181Y-95865507D01*
X110959221Y-95865062D01*
X110951841Y-95866834D01*
X110951839Y-95866834D01*
X110812563Y-95900271D01*
X110812560Y-95900272D01*
X110805184Y-95902043D01*
X110664414Y-95974700D01*
X110545039Y-96078838D01*
X110453950Y-96208444D01*
X110396406Y-96356037D01*
X110375729Y-96513096D01*
X107569000Y-96513096D01*
X107569000Y-80682425D01*
X107571421Y-80657844D01*
X107571555Y-80657170D01*
X107573976Y-80645000D01*
X107571555Y-80632828D01*
X107571555Y-80621301D01*
X107572034Y-80610320D01*
X107583474Y-80479554D01*
X107587287Y-80457930D01*
X107627420Y-80308152D01*
X107634931Y-80287516D01*
X107700460Y-80146990D01*
X107711442Y-80127970D01*
X107800379Y-80000954D01*
X107814497Y-79984129D01*
X107924129Y-79874497D01*
X107940954Y-79860379D01*
X108067970Y-79771442D01*
X108086990Y-79760460D01*
X108227516Y-79694931D01*
X108248152Y-79687420D01*
X108397930Y-79647287D01*
X108419551Y-79643475D01*
X108550319Y-79632034D01*
X108561301Y-79631555D01*
X108572828Y-79631555D01*
X108585000Y-79633976D01*
X108597847Y-79631421D01*
X108622425Y-79629000D01*
X114809000Y-79629000D01*
X114877121Y-79649002D01*
G37*
%TD.AperFunction*%
%TD*%
%TA.AperFunction,Conductor*%
%TO.N,GNDA*%
G36*
X178758121Y-95270002D02*
G01*
X178804614Y-95323658D01*
X178816000Y-95376000D01*
X178816000Y-121247575D01*
X178813579Y-121272153D01*
X178811024Y-121285000D01*
X178813445Y-121297172D01*
X178813445Y-121308699D01*
X178812966Y-121319680D01*
X178801526Y-121450446D01*
X178797713Y-121472070D01*
X178757581Y-121621846D01*
X178750069Y-121642484D01*
X178684540Y-121783010D01*
X178673558Y-121802030D01*
X178584621Y-121929046D01*
X178570503Y-121945871D01*
X178460871Y-122055503D01*
X178444046Y-122069621D01*
X178317030Y-122158558D01*
X178298010Y-122169540D01*
X178157484Y-122235069D01*
X178136848Y-122242580D01*
X177987070Y-122282713D01*
X177965449Y-122286525D01*
X177856878Y-122296024D01*
X177834680Y-122297966D01*
X177823699Y-122298445D01*
X177812172Y-122298445D01*
X177800000Y-122296024D01*
X177787153Y-122298579D01*
X177762575Y-122301000D01*
X153161000Y-122301000D01*
X153092879Y-122280998D01*
X153046386Y-122227342D01*
X153035000Y-122175000D01*
X153035000Y-113283000D01*
X153055002Y-113214879D01*
X153108658Y-113168386D01*
X153161000Y-113157000D01*
X167386000Y-113157000D01*
X167386000Y-108257644D01*
X167406002Y-108189523D01*
X167424668Y-108166819D01*
X173976943Y-101866555D01*
X173990000Y-101854000D01*
X173990000Y-96572190D01*
X174010002Y-96504069D01*
X174026905Y-96483095D01*
X175223095Y-95286905D01*
X175285407Y-95252879D01*
X175312190Y-95250000D01*
X178690000Y-95250000D01*
X178758121Y-95270002D01*
G37*
%TD.AperFunction*%
%TD*%
%TA.AperFunction,Conductor*%
%TO.N,+BATT*%
G36*
X149801167Y-81300002D02*
G01*
X149847660Y-81353658D01*
X149859042Y-81406950D01*
X149606000Y-114935000D01*
X149613573Y-114941311D01*
X149613574Y-114941312D01*
X151116084Y-116193404D01*
X151116086Y-116193405D01*
X151130000Y-116205000D01*
X151712810Y-116205000D01*
X151780931Y-116225002D01*
X151801905Y-116241905D01*
X152363095Y-116803095D01*
X152397121Y-116865407D01*
X152400000Y-116892190D01*
X152400000Y-120597810D01*
X152379998Y-120665931D01*
X152363095Y-120686905D01*
X151801905Y-121248095D01*
X151739593Y-121282121D01*
X151712810Y-121285000D01*
X128322190Y-121285000D01*
X128254069Y-121264998D01*
X128233095Y-121248095D01*
X127671905Y-120686905D01*
X127637879Y-120624593D01*
X127635000Y-120597810D01*
X127635000Y-120527069D01*
X127640442Y-120490440D01*
X127695865Y-120308023D01*
X127695865Y-120308021D01*
X127697370Y-120303069D01*
X127726529Y-120081590D01*
X127728156Y-120015000D01*
X127709852Y-119792361D01*
X127655431Y-119575702D01*
X127645450Y-119552747D01*
X127635000Y-119502505D01*
X127635000Y-117987069D01*
X127640442Y-117950440D01*
X127695865Y-117768023D01*
X127695865Y-117768021D01*
X127697370Y-117763069D01*
X127726529Y-117541590D01*
X127728156Y-117475000D01*
X127709852Y-117252361D01*
X127655431Y-117035702D01*
X127645450Y-117012747D01*
X127635000Y-116962505D01*
X127635000Y-116892190D01*
X127655002Y-116824069D01*
X127671905Y-116803095D01*
X128868095Y-115606905D01*
X128930407Y-115572879D01*
X128957190Y-115570000D01*
X137160000Y-115570000D01*
X139446000Y-113030000D01*
X139446000Y-101345000D01*
X139466002Y-101276879D01*
X139519658Y-101230386D01*
X139572000Y-101219000D01*
X141986000Y-101219000D01*
X141986000Y-95631000D01*
X141025166Y-95631000D01*
X140957045Y-95610998D01*
X140932581Y-95590463D01*
X139479415Y-94016200D01*
X139447907Y-93952578D01*
X139446000Y-93930737D01*
X139446000Y-85089000D01*
X139466002Y-85020879D01*
X139519658Y-84974386D01*
X139572000Y-84963000D01*
X141986000Y-84963000D01*
X141986000Y-81406000D01*
X142006002Y-81337879D01*
X142059658Y-81291386D01*
X142112000Y-81280000D01*
X149733046Y-81280000D01*
X149801167Y-81300002D01*
G37*
%TD.AperFunction*%
%TD*%
%TA.AperFunction,Conductor*%
%TO.N,Net-(C32-Pad2)*%
G36*
X178504121Y-81173002D02*
G01*
X178550614Y-81226658D01*
X178562000Y-81279000D01*
X178562000Y-88774000D01*
X178541998Y-88842121D01*
X178488342Y-88888614D01*
X178436000Y-88900000D01*
X170180000Y-88900000D01*
X170172037Y-88907657D01*
X170172036Y-88907657D01*
X166891057Y-92062445D01*
X166878000Y-92075000D01*
X166878000Y-96521000D01*
X166857998Y-96589121D01*
X166804342Y-96635614D01*
X166752000Y-96647000D01*
X156844000Y-96647000D01*
X156775879Y-96626998D01*
X156729386Y-96573342D01*
X156718000Y-96521000D01*
X156718000Y-93345000D01*
X150748000Y-93345000D01*
X150679879Y-93324998D01*
X150633386Y-93271342D01*
X150622000Y-93219000D01*
X150622000Y-81279000D01*
X150642002Y-81210879D01*
X150695658Y-81164386D01*
X150748000Y-81153000D01*
X178436000Y-81153000D01*
X178504121Y-81173002D01*
G37*
%TD.AperFunction*%
%TD*%
%TA.AperFunction,Conductor*%
%TO.N,Net-(C31-Pad2)*%
G36*
X178377121Y-90190002D02*
G01*
X178423614Y-90243658D01*
X178435000Y-90296000D01*
X178435000Y-94489000D01*
X178414998Y-94557121D01*
X178361342Y-94603614D01*
X178309000Y-94615000D01*
X174625000Y-94615000D01*
X173355000Y-95885000D01*
X173355000Y-101623577D01*
X173334998Y-101691698D01*
X173316660Y-101714085D01*
X166878000Y-107950000D01*
X166878000Y-112269000D01*
X166857998Y-112337121D01*
X166804342Y-112383614D01*
X166752000Y-112395000D01*
X156844000Y-112395000D01*
X156775879Y-112374998D01*
X156729386Y-112321342D01*
X156718000Y-112269000D01*
X156718000Y-105283000D01*
X150748000Y-105283000D01*
X150679879Y-105262998D01*
X150633386Y-105209342D01*
X150622000Y-105157000D01*
X150622000Y-94741000D01*
X150642002Y-94672879D01*
X150695658Y-94626386D01*
X150748000Y-94615000D01*
X156084000Y-94615000D01*
X156152121Y-94635002D01*
X156198614Y-94688658D01*
X156210000Y-94741000D01*
X156210000Y-97663000D01*
X167005000Y-97663000D01*
X167640000Y-97155000D01*
X167640000Y-92762833D01*
X167660002Y-92694712D01*
X167677680Y-92672968D01*
X170187669Y-90206135D01*
X170250274Y-90172652D01*
X170275989Y-90170000D01*
X178309000Y-90170000D01*
X178377121Y-90190002D01*
G37*
%TD.AperFunction*%
%TD*%
M02*
