M48
; DRILL file {KiCad (6.0.0)} date Mon Mar 21 15:13:26 2022
; FORMAT={-:-/ absolute / inch / decimal}
; #@! TF.CreationDate,2022-03-21T15:13:26+09:00
; #@! TF.GenerationSoftware,Kicad,Pcbnew,(6.0.0)
; #@! TF.FileFunction,Plated,1,2,PTH
FMAT,2
INCH
; #@! TA.AperFunction,Plated,PTH,ViaDrill
T1C0.0157
; #@! TA.AperFunction,Plated,PTH,ViaDrill
T2C0.0315
; #@! TA.AperFunction,Plated,PTH,ComponentDrill
T3C0.0394
%
G90
G05
T1
X4.275Y-3.175
X4.275Y-3.4
X4.275Y-3.675
X4.275Y-3.925
X4.3Y-4.7
X4.3715Y-3.8
X4.375Y-4.775
X4.3991Y-3.269
X4.4Y-3.525
X4.5Y-3.175
X4.5Y-3.4
X4.5Y-3.675
X4.5Y-3.925
X4.56Y-3.98
X4.58Y-3.37
X4.58Y-3.64
X4.59Y-3.18
X4.59Y-3.53
X4.59Y-3.8
X4.59Y-4.18
X4.6Y-4.775
X4.63Y-4.09
X4.65Y-3.97
X4.7Y-4.24
X4.73Y-3.44
X4.74Y-3.71
X4.76Y-3.93
X4.83Y-3.45
X4.84Y-3.19
X4.84Y-3.88
X4.85Y-3.63
X4.85Y-4.22
X4.925Y-4.55
X4.95Y-3.31
X4.95Y-3.71
X4.95Y-4.22
X4.97Y-3.19
X4.97Y-3.56
X5.04Y-4.22
X5.1Y-3.19
X5.1Y-3.64
X5.1Y-4.49
X5.13Y-4.22
X5.16Y-3.47
X5.17Y-3.88
X5.19Y-3.64
X5.19Y-4.49
X5.21Y-3.25
X5.22Y-4.22
X5.28Y-4.49
X5.29Y-4.22
X5.31Y-3.56
X5.36Y-4.49
X5.37Y-3.44
X5.3704Y-4.2241
X5.3715Y-3.95
X5.39Y-3.18
X5.4Y-3.67
X5.4Y-3.85
X5.4Y-4.25
X5.435Y-3.955
X5.4415Y-4.275
X5.47Y-3.225
X5.47Y-3.255
X5.47Y-3.285
X5.47Y-3.875
X5.47Y-3.905
X5.47Y-3.935
X5.5Y-3.225
X5.5Y-3.255
X5.5Y-3.285
X5.5Y-3.875
X5.5Y-3.905
X5.5Y-3.935
X5.53Y-3.225
X5.53Y-3.255
X5.53Y-3.285
X5.53Y-3.875
X5.53Y-3.905
X5.53Y-3.935
X6.75Y-4.475
X6.8Y-4.375
X6.85Y-4.475
X6.9Y-3.775
X6.9Y-4.175
X6.9Y-4.375
X6.95Y-4.075
X6.95Y-4.275
X6.95Y-4.475
X7.0Y-3.775
X7.0Y-4.175
X7.0Y-4.375
T2
X5.53Y-3.385
X5.53Y-3.425
X5.53Y-3.465
X5.53Y-3.505
X5.53Y-3.545
X5.53Y-3.585
X5.53Y-3.625
X5.53Y-3.665
X5.53Y-3.705
X5.53Y-4.025
X5.53Y-4.065
X5.53Y-4.105
X5.53Y-4.145
X5.53Y-4.185
X5.53Y-4.225
X5.53Y-4.265
X5.53Y-4.305
X5.53Y-4.345
X5.53Y-4.385
X5.57Y-3.385
X5.57Y-3.425
X5.57Y-3.465
X5.57Y-3.505
X5.57Y-3.545
X5.57Y-3.585
X5.57Y-3.625
X5.57Y-3.665
X5.57Y-3.705
X5.57Y-3.745
X5.57Y-4.025
X5.57Y-4.065
X5.57Y-4.105
X5.57Y-4.145
X5.57Y-4.185
X5.57Y-4.225
X5.57Y-4.265
X5.57Y-4.305
X5.57Y-4.345
X5.57Y-4.385
X5.61Y-3.225
X5.61Y-3.265
X5.61Y-3.305
X5.61Y-3.345
X5.61Y-3.385
X5.61Y-3.425
X5.61Y-3.465
X5.61Y-3.505
X5.61Y-3.545
X5.61Y-3.585
X5.61Y-3.625
X5.61Y-3.665
X5.61Y-3.705
X5.61Y-3.745
X5.61Y-3.865
X5.61Y-3.905
X5.61Y-3.945
X5.61Y-3.985
X5.61Y-4.025
X5.61Y-4.065
X5.61Y-4.105
X5.61Y-4.145
X5.61Y-4.185
X5.61Y-4.225
X5.61Y-4.265
X5.61Y-4.305
X5.61Y-4.345
X5.61Y-4.385
X5.65Y-3.225
X5.65Y-3.265
X5.65Y-3.305
X5.65Y-3.345
X5.65Y-3.385
X5.65Y-3.425
X5.65Y-3.465
X5.65Y-3.505
X5.65Y-3.545
X5.65Y-3.585
X5.65Y-3.625
X5.65Y-3.665
X5.65Y-3.705
X5.65Y-3.745
X5.65Y-3.865
X5.65Y-3.905
X5.65Y-3.945
X5.65Y-3.985
X5.65Y-4.025
X5.65Y-4.065
X5.65Y-4.105
X5.65Y-4.145
X5.65Y-4.185
X5.65Y-4.225
X5.65Y-4.265
X5.65Y-4.305
X5.65Y-4.345
X5.65Y-4.385
X5.69Y-3.225
X5.69Y-3.265
X5.69Y-3.305
X5.69Y-3.345
X5.69Y-3.385
X5.69Y-3.425
X5.69Y-3.465
X5.69Y-3.505
X5.69Y-3.545
X5.69Y-3.585
X5.69Y-3.625
X5.69Y-3.665
X5.69Y-3.705
X5.69Y-3.745
X5.69Y-3.865
X5.69Y-3.905
X5.69Y-3.945
X5.69Y-3.985
X5.69Y-4.025
X5.69Y-4.065
X5.69Y-4.105
X5.69Y-4.145
X5.69Y-4.185
X5.69Y-4.225
X5.69Y-4.265
X5.69Y-4.305
X5.69Y-4.345
X5.69Y-4.385
X5.73Y-3.225
X5.73Y-3.265
X5.73Y-3.305
X5.73Y-3.345
X5.73Y-3.385
X5.73Y-3.425
X5.73Y-3.465
X5.73Y-3.505
X5.73Y-3.545
X5.73Y-3.585
X5.73Y-3.625
X5.73Y-3.665
X5.73Y-3.705
X5.73Y-3.745
X5.73Y-3.865
X5.73Y-3.905
X5.73Y-3.945
X5.73Y-3.985
X5.73Y-4.025
X5.73Y-4.065
X5.73Y-4.105
X5.73Y-4.145
X5.73Y-4.185
X5.73Y-4.225
X5.73Y-4.265
X5.73Y-4.305
X5.73Y-4.345
X5.73Y-4.385
X5.77Y-3.225
X5.77Y-3.265
X5.77Y-3.305
X5.77Y-3.345
X5.77Y-3.385
X5.77Y-3.425
X5.77Y-3.465
X5.77Y-3.505
X5.77Y-3.545
X5.77Y-3.585
X5.77Y-3.625
X5.77Y-3.665
X5.77Y-3.705
X5.77Y-3.745
X5.77Y-3.865
X5.77Y-3.905
X5.77Y-3.945
X5.77Y-3.985
X5.77Y-4.025
X5.77Y-4.065
X5.77Y-4.105
X5.77Y-4.145
X5.77Y-4.185
X5.77Y-4.225
X5.77Y-4.265
X5.77Y-4.305
X5.77Y-4.345
X5.77Y-4.385
X5.81Y-3.225
X5.81Y-3.265
X5.81Y-3.305
X5.81Y-3.345
X5.81Y-3.385
X5.81Y-3.425
X5.81Y-3.465
X5.81Y-3.505
X5.81Y-3.545
X5.81Y-3.585
X5.81Y-3.625
X5.81Y-3.665
X5.81Y-3.705
X5.81Y-3.745
X5.81Y-3.865
X5.81Y-3.905
X5.81Y-3.945
X5.81Y-3.985
X5.81Y-4.025
X5.81Y-4.065
X5.81Y-4.105
X5.81Y-4.145
X5.81Y-4.185
X5.81Y-4.225
X5.81Y-4.265
X5.81Y-4.305
X5.81Y-4.345
X5.81Y-4.385
X5.85Y-3.225
X5.85Y-3.265
X5.85Y-3.305
X5.85Y-3.345
X5.85Y-3.385
X5.85Y-3.425
X5.85Y-3.465
X5.85Y-3.505
X5.85Y-3.545
X5.85Y-3.585
X5.85Y-3.625
X5.85Y-3.665
X5.85Y-3.705
X5.85Y-3.745
X5.85Y-3.865
X5.85Y-3.905
X5.85Y-3.945
X5.85Y-3.985
X5.85Y-4.025
X5.85Y-4.065
X5.85Y-4.105
X5.85Y-4.145
X5.85Y-4.185
X5.85Y-4.225
X5.85Y-4.265
X5.85Y-4.305
X5.85Y-4.345
X5.85Y-4.385
X5.97Y-3.265
X5.97Y-3.305
X5.97Y-3.345
X5.97Y-3.385
X5.97Y-3.425
X5.97Y-3.465
X5.97Y-3.905
X5.97Y-3.945
X5.97Y-3.985
X5.97Y-4.025
X5.97Y-4.065
X5.97Y-4.105
X6.01Y-3.265
X6.01Y-3.305
X6.01Y-3.345
X6.01Y-3.385
X6.01Y-3.425
X6.01Y-3.465
X6.01Y-3.905
X6.01Y-3.945
X6.01Y-3.985
X6.01Y-4.025
X6.01Y-4.065
X6.01Y-4.105
X6.05Y-3.265
X6.05Y-3.305
X6.05Y-3.345
X6.05Y-3.385
X6.05Y-3.425
X6.05Y-3.465
X6.05Y-3.905
X6.05Y-3.945
X6.05Y-3.985
X6.05Y-4.025
X6.05Y-4.065
X6.05Y-4.105
X6.09Y-3.265
X6.09Y-3.305
X6.09Y-3.345
X6.09Y-3.385
X6.09Y-3.425
X6.09Y-3.465
X6.09Y-3.905
X6.09Y-3.945
X6.09Y-3.985
X6.09Y-4.025
X6.09Y-4.065
X6.09Y-4.105
X6.13Y-3.265
X6.13Y-3.305
X6.13Y-3.345
X6.13Y-3.385
X6.13Y-3.425
X6.13Y-3.465
X6.13Y-3.905
X6.13Y-3.945
X6.13Y-3.985
X6.13Y-4.025
X6.13Y-4.065
X6.13Y-4.105
X6.17Y-3.265
X6.17Y-3.305
X6.17Y-3.345
X6.17Y-3.385
X6.17Y-3.425
X6.17Y-3.465
X6.17Y-3.905
X6.17Y-3.945
X6.17Y-3.985
X6.17Y-4.025
X6.17Y-4.065
X6.17Y-4.105
X6.21Y-3.265
X6.21Y-3.305
X6.21Y-3.345
X6.21Y-3.385
X6.21Y-3.425
X6.21Y-3.465
X6.21Y-3.505
X6.21Y-3.545
X6.21Y-3.585
X6.21Y-3.625
X6.21Y-3.665
X6.21Y-3.705
X6.21Y-3.745
X6.21Y-3.905
X6.21Y-3.945
X6.21Y-3.985
X6.21Y-4.025
X6.21Y-4.065
X6.21Y-4.105
X6.21Y-4.145
X6.21Y-4.185
X6.21Y-4.225
X6.21Y-4.265
X6.21Y-4.305
X6.21Y-4.345
X6.21Y-4.385
X6.25Y-3.265
X6.25Y-3.305
X6.25Y-3.345
X6.25Y-3.385
X6.25Y-3.425
X6.25Y-3.465
X6.25Y-3.505
X6.25Y-3.545
X6.25Y-3.585
X6.25Y-3.625
X6.25Y-3.665
X6.25Y-3.705
X6.25Y-3.745
X6.25Y-3.905
X6.25Y-3.945
X6.25Y-3.985
X6.25Y-4.025
X6.25Y-4.065
X6.25Y-4.105
X6.25Y-4.145
X6.25Y-4.185
X6.25Y-4.225
X6.25Y-4.265
X6.25Y-4.305
X6.25Y-4.345
X6.25Y-4.385
X6.29Y-3.265
X6.29Y-3.305
X6.29Y-3.345
X6.29Y-3.385
X6.29Y-3.425
X6.29Y-3.465
X6.29Y-3.505
X6.29Y-3.545
X6.29Y-3.585
X6.29Y-3.625
X6.29Y-3.665
X6.29Y-3.705
X6.29Y-3.745
X6.29Y-3.905
X6.29Y-3.945
X6.29Y-3.985
X6.29Y-4.025
X6.29Y-4.065
X6.29Y-4.105
X6.29Y-4.145
X6.29Y-4.185
X6.29Y-4.225
X6.29Y-4.265
X6.29Y-4.305
X6.29Y-4.345
X6.29Y-4.385
X6.33Y-3.265
X6.33Y-3.305
X6.33Y-3.345
X6.33Y-3.385
X6.33Y-3.425
X6.33Y-3.465
X6.33Y-3.505
X6.33Y-3.545
X6.33Y-3.585
X6.33Y-3.625
X6.33Y-3.665
X6.33Y-3.705
X6.33Y-3.745
X6.33Y-3.905
X6.33Y-3.945
X6.33Y-3.985
X6.33Y-4.025
X6.33Y-4.065
X6.33Y-4.105
X6.33Y-4.145
X6.33Y-4.185
X6.33Y-4.225
X6.33Y-4.265
X6.33Y-4.305
X6.33Y-4.345
X6.33Y-4.385
X6.37Y-3.265
X6.37Y-3.305
X6.37Y-3.345
X6.37Y-3.385
X6.37Y-3.425
X6.37Y-3.465
X6.37Y-3.505
X6.37Y-3.545
X6.37Y-3.585
X6.37Y-3.625
X6.37Y-3.665
X6.37Y-3.705
X6.37Y-3.745
X6.37Y-3.905
X6.37Y-3.945
X6.37Y-3.985
X6.37Y-4.025
X6.37Y-4.065
X6.37Y-4.105
X6.37Y-4.145
X6.37Y-4.185
X6.37Y-4.225
X6.37Y-4.265
X6.37Y-4.305
X6.37Y-4.345
X6.37Y-4.385
X6.41Y-3.265
X6.41Y-3.305
X6.41Y-3.345
X6.41Y-3.385
X6.41Y-3.425
X6.41Y-3.465
X6.41Y-3.505
X6.41Y-3.545
X6.41Y-3.585
X6.41Y-3.625
X6.41Y-3.665
X6.41Y-3.705
X6.41Y-3.745
X6.41Y-3.905
X6.41Y-3.945
X6.41Y-3.985
X6.41Y-4.025
X6.41Y-4.065
X6.41Y-4.105
X6.41Y-4.145
X6.41Y-4.185
X6.41Y-4.225
X6.41Y-4.265
X6.41Y-4.305
X6.41Y-4.345
X6.41Y-4.385
X6.45Y-3.265
X6.45Y-3.305
X6.45Y-3.345
X6.45Y-3.385
X6.45Y-3.425
X6.45Y-3.465
X6.45Y-3.505
X6.45Y-3.545
X6.45Y-3.585
X6.45Y-3.625
X6.45Y-3.665
X6.45Y-3.705
X6.45Y-3.745
X6.45Y-3.905
X6.45Y-3.945
X6.45Y-3.985
X6.45Y-4.025
X6.45Y-4.065
X6.45Y-4.105
X6.45Y-4.145
X6.45Y-4.185
X6.45Y-4.225
X6.45Y-4.265
X6.45Y-4.305
X6.45Y-4.345
X6.45Y-4.385
X6.49Y-3.265
X6.49Y-3.305
X6.49Y-3.345
X6.49Y-3.385
X6.49Y-3.425
X6.49Y-3.465
X6.49Y-3.505
X6.49Y-3.545
X6.49Y-3.585
X6.49Y-3.625
X6.49Y-3.665
X6.49Y-3.705
X6.49Y-3.745
X6.49Y-3.905
X6.49Y-3.945
X6.49Y-3.985
X6.49Y-4.025
X6.49Y-4.065
X6.49Y-4.105
X6.49Y-4.145
X6.49Y-4.185
X6.49Y-4.225
X6.49Y-4.265
X6.49Y-4.305
X6.49Y-4.345
X6.49Y-4.385
X6.53Y-3.265
X6.53Y-3.305
X6.53Y-3.345
X6.53Y-3.385
X6.53Y-3.425
X6.53Y-3.465
X6.53Y-3.505
X6.53Y-3.545
X6.53Y-3.585
X6.53Y-3.625
X6.53Y-3.665
X6.53Y-3.705
X6.53Y-3.745
X6.53Y-3.905
X6.53Y-3.945
X6.53Y-3.985
X6.53Y-4.025
X6.53Y-4.065
X6.53Y-4.105
X6.53Y-4.145
X6.53Y-4.185
X6.53Y-4.225
X6.53Y-4.265
X6.53Y-4.305
X6.53Y-4.345
X6.53Y-4.385
T3
X4.675Y-4.625
X4.675Y-4.725
X4.775Y-4.625
X4.775Y-4.725
X4.875Y-4.625
X4.875Y-4.725
X4.975Y-4.625
X4.975Y-4.725
X5.075Y-4.625
X5.075Y-4.725
X5.175Y-4.625
X5.175Y-4.725
X5.275Y-4.625
X5.275Y-4.725
X5.375Y-4.625
X5.375Y-4.725
X5.475Y-4.625
X5.475Y-4.725
X5.575Y-4.625
X5.575Y-4.725
X5.675Y-4.625
X5.675Y-4.725
X5.775Y-4.625
X5.775Y-4.725
X5.875Y-4.625
X5.875Y-4.725
X5.975Y-4.625
X5.975Y-4.725
X6.075Y-4.625
X6.075Y-4.725
X6.175Y-4.625
X6.175Y-4.725
X6.275Y-4.625
X6.275Y-4.725
X6.375Y-4.625
X6.375Y-4.725
X6.475Y-4.625
X6.475Y-4.725
X6.575Y-4.625
X6.575Y-4.725
X6.675Y-4.625
X6.675Y-4.725
X6.775Y-4.625
X6.775Y-4.725
X6.875Y-4.625
X6.875Y-4.725
X6.975Y-4.625
X6.975Y-4.725
T0
M30
