%TF.GenerationSoftware,KiCad,Pcbnew,(6.0.0)*%
%TF.CreationDate,2022-03-21T15:13:20+09:00*%
%TF.ProjectId,MotorDriver base unit,4d6f746f-7244-4726-9976-657220626173,rev?*%
%TF.SameCoordinates,Original*%
%TF.FileFunction,Paste,Top*%
%TF.FilePolarity,Positive*%
%FSLAX46Y46*%
G04 Gerber Fmt 4.6, Leading zero omitted, Abs format (unit mm)*
G04 Created by KiCad (PCBNEW (6.0.0)) date 2022-03-21 15:13:20*
%MOMM*%
%LPD*%
G01*
G04 APERTURE LIST*
G04 Aperture macros list*
%AMRoundRect*
0 Rectangle with rounded corners*
0 $1 Rounding radius*
0 $2 $3 $4 $5 $6 $7 $8 $9 X,Y pos of 4 corners*
0 Add a 4 corners polygon primitive as box body*
4,1,4,$2,$3,$4,$5,$6,$7,$8,$9,$2,$3,0*
0 Add four circle primitives for the rounded corners*
1,1,$1+$1,$2,$3*
1,1,$1+$1,$4,$5*
1,1,$1+$1,$6,$7*
1,1,$1+$1,$8,$9*
0 Add four rect primitives between the rounded corners*
20,1,$1+$1,$2,$3,$4,$5,0*
20,1,$1+$1,$4,$5,$6,$7,0*
20,1,$1+$1,$6,$7,$8,$9,0*
20,1,$1+$1,$8,$9,$2,$3,0*%
G04 Aperture macros list end*
%ADD10RoundRect,0.225000X0.225000X0.250000X-0.225000X0.250000X-0.225000X-0.250000X0.225000X-0.250000X0*%
%ADD11RoundRect,0.250000X-1.000000X1.750000X-1.000000X-1.750000X1.000000X-1.750000X1.000000X1.750000X0*%
%ADD12RoundRect,0.218750X0.256250X-0.218750X0.256250X0.218750X-0.256250X0.218750X-0.256250X-0.218750X0*%
%ADD13RoundRect,0.200000X-0.275000X0.200000X-0.275000X-0.200000X0.275000X-0.200000X0.275000X0.200000X0*%
%ADD14RoundRect,0.200000X0.200000X0.275000X-0.200000X0.275000X-0.200000X-0.275000X0.200000X-0.275000X0*%
%ADD15R,2.000000X0.640000*%
%ADD16R,3.500000X2.700000*%
%ADD17R,4.550000X5.250000*%
%ADD18R,4.600000X1.100000*%
%ADD19RoundRect,0.150000X-0.825000X-0.150000X0.825000X-0.150000X0.825000X0.150000X-0.825000X0.150000X0*%
%ADD20R,1.100000X1.100000*%
%ADD21RoundRect,0.200000X-0.200000X-0.275000X0.200000X-0.275000X0.200000X0.275000X-0.200000X0.275000X0*%
%ADD22RoundRect,0.250000X-0.475000X0.250000X-0.475000X-0.250000X0.475000X-0.250000X0.475000X0.250000X0*%
%ADD23RoundRect,0.249999X0.325001X1.100001X-0.325001X1.100001X-0.325001X-1.100001X0.325001X-1.100001X0*%
%ADD24RoundRect,0.250000X1.100000X-0.325000X1.100000X0.325000X-1.100000X0.325000X-1.100000X-0.325000X0*%
%ADD25RoundRect,0.250000X0.475000X-0.250000X0.475000X0.250000X-0.475000X0.250000X-0.475000X-0.250000X0*%
%ADD26R,2.750000X3.050000*%
%ADD27R,1.200000X2.200000*%
G04 APERTURE END LIST*
D10*
%TO.C,C23*%
X119126000Y-81915000D03*
X117576000Y-81915000D03*
%TD*%
D11*
%TO.C,C36*%
X132588000Y-103696000D03*
X132588000Y-111696000D03*
%TD*%
D12*
%TO.C,D9*%
X109474000Y-99746000D03*
X109474000Y-98171000D03*
%TD*%
%TO.C,D11*%
X109474000Y-86538000D03*
X109474000Y-84963000D03*
%TD*%
%TO.C,D12*%
X109474000Y-93142000D03*
X109474000Y-91567000D03*
%TD*%
D13*
%TO.C,R7*%
X109474000Y-95123000D03*
X109474000Y-96773000D03*
%TD*%
%TO.C,R8*%
X109474000Y-81915000D03*
X109474000Y-83565000D03*
%TD*%
%TO.C,R9*%
X109474000Y-88519000D03*
X109474000Y-90169000D03*
%TD*%
D14*
%TO.C,R20*%
X114046000Y-95123000D03*
X112396000Y-95123000D03*
%TD*%
%TO.C,R21*%
X114046000Y-88519000D03*
X112396000Y-88519000D03*
%TD*%
%TO.C,R22*%
X114046000Y-81915000D03*
X112396000Y-81915000D03*
%TD*%
D15*
%TO.C,U7*%
X112826000Y-90551000D03*
X112826000Y-91821000D03*
X112826000Y-93091000D03*
X119126000Y-93091000D03*
X119126000Y-91821000D03*
X119126000Y-90551000D03*
%TD*%
%TO.C,U8*%
X112826000Y-83947000D03*
X112826000Y-85217000D03*
X112826000Y-86487000D03*
X119126000Y-86487000D03*
X119126000Y-85217000D03*
X119126000Y-83947000D03*
%TD*%
D10*
%TO.C,C22*%
X119126000Y-88519000D03*
X117576000Y-88519000D03*
%TD*%
D16*
%TO.C,D47*%
X153670000Y-99187000D03*
X146870000Y-99187000D03*
%TD*%
%TO.C,D56*%
X170815000Y-82677000D03*
X164015000Y-82677000D03*
%TD*%
%TO.C,D55*%
X153670000Y-82677000D03*
X146870000Y-82677000D03*
%TD*%
%TO.C,D48*%
X170815000Y-99187000D03*
X164015000Y-99187000D03*
%TD*%
D17*
%TO.C,Q6*%
X159240000Y-92945000D03*
X164090000Y-87395000D03*
X164090000Y-92945000D03*
X159240000Y-87395000D03*
D18*
X170815000Y-92710000D03*
X170815000Y-87630000D03*
%TD*%
D17*
%TO.C,Q5*%
X142095000Y-87395000D03*
X146945000Y-87395000D03*
X146945000Y-92945000D03*
X142095000Y-92945000D03*
D18*
X153670000Y-92710000D03*
X153670000Y-87630000D03*
%TD*%
D17*
%TO.C,Q2*%
X159300000Y-104032000D03*
X159300000Y-109582000D03*
X164150000Y-104032000D03*
X164150000Y-109582000D03*
D18*
X170875000Y-109347000D03*
X170875000Y-104267000D03*
%TD*%
D19*
%TO.C,U12*%
X122812000Y-93599000D03*
X122812000Y-94869000D03*
X122812000Y-96139000D03*
X122812000Y-97409000D03*
X127762000Y-97409000D03*
X127762000Y-96139000D03*
X127762000Y-94869000D03*
X127762000Y-93599000D03*
%TD*%
D14*
%TO.C,R38*%
X135000000Y-86487000D03*
X133350000Y-86487000D03*
%TD*%
%TO.C,R37*%
X135000000Y-81407000D03*
X133350000Y-81407000D03*
%TD*%
%TO.C,R35*%
X135000000Y-92075000D03*
X133350000Y-92075000D03*
%TD*%
%TO.C,R36*%
X135000000Y-97155000D03*
X133350000Y-97155000D03*
%TD*%
D20*
%TO.C,D30*%
X136150000Y-89027000D03*
X133350000Y-89027000D03*
%TD*%
%TO.C,D29*%
X136150000Y-83947000D03*
X133350000Y-83947000D03*
%TD*%
%TO.C,D28*%
X136150000Y-99695000D03*
X133350000Y-99695000D03*
%TD*%
%TO.C,D27*%
X136150000Y-94615000D03*
X133350000Y-94615000D03*
%TD*%
%TO.C,D24*%
X124962000Y-80899000D03*
X127762000Y-80899000D03*
%TD*%
%TO.C,D23*%
X124962000Y-91567000D03*
X127762000Y-91567000D03*
%TD*%
D10*
%TO.C,C28*%
X124232000Y-89027000D03*
X122682000Y-89027000D03*
%TD*%
%TO.C,C27*%
X124206000Y-99695000D03*
X122656000Y-99695000D03*
%TD*%
D19*
%TO.C,U13*%
X122812000Y-82931000D03*
X122812000Y-84201000D03*
X122812000Y-85471000D03*
X122812000Y-86741000D03*
X127762000Y-86741000D03*
X127762000Y-85471000D03*
X127762000Y-84201000D03*
X127762000Y-82931000D03*
%TD*%
D21*
%TO.C,R28*%
X129756500Y-89027000D03*
X131406500Y-89027000D03*
%TD*%
%TO.C,R31*%
X126149500Y-89027000D03*
X127799500Y-89027000D03*
%TD*%
%TO.C,R30*%
X126149500Y-99695000D03*
X127799500Y-99695000D03*
%TD*%
%TO.C,R27*%
X129756500Y-99695000D03*
X131406500Y-99695000D03*
%TD*%
D22*
%TO.C,C31*%
X130810000Y-93980000D03*
X130810000Y-95880000D03*
%TD*%
%TO.C,C32*%
X130810000Y-83185000D03*
X130810000Y-85085000D03*
%TD*%
D23*
%TO.C,C57*%
X143002000Y-99187000D03*
X140052000Y-99187000D03*
%TD*%
%TO.C,C58*%
X143002000Y-82677000D03*
X140052000Y-82677000D03*
%TD*%
D15*
%TO.C,U6*%
X112826000Y-97155000D03*
X112826000Y-98425000D03*
X112826000Y-99695000D03*
X119126000Y-99695000D03*
X119126000Y-98425000D03*
X119126000Y-97155000D03*
%TD*%
D10*
%TO.C,C21*%
X119126000Y-95123000D03*
X117576000Y-95123000D03*
%TD*%
D17*
%TO.C,Q1*%
X146945000Y-104032000D03*
X146945000Y-109582000D03*
X142095000Y-104032000D03*
X142095000Y-109582000D03*
D18*
X153670000Y-109347000D03*
X153670000Y-104267000D03*
%TD*%
D24*
%TO.C,C1*%
X114300000Y-104980000D03*
X114300000Y-102030000D03*
%TD*%
D25*
%TO.C,C2*%
X110490000Y-104455000D03*
X110490000Y-102555000D03*
%TD*%
D11*
%TO.C,C35*%
X121412000Y-103696000D03*
X121412000Y-111696000D03*
%TD*%
D26*
%TO.C,U1*%
X110235000Y-112820000D03*
X113285000Y-116170000D03*
X110235000Y-116170000D03*
X113285000Y-112820000D03*
D27*
X114040000Y-108195000D03*
X109480000Y-108195000D03*
%TD*%
D21*
%TO.C,R1*%
X112205000Y-120015000D03*
X113855000Y-120015000D03*
%TD*%
M02*
