%TF.GenerationSoftware,KiCad,Pcbnew,(6.0.0)*%
%TF.CreationDate,2022-03-21T15:13:20+09:00*%
%TF.ProjectId,MotorDriver base unit,4d6f746f-7244-4726-9976-657220626173,rev?*%
%TF.SameCoordinates,Original*%
%TF.FileFunction,Legend,Bot*%
%TF.FilePolarity,Positive*%
%FSLAX46Y46*%
G04 Gerber Fmt 4.6, Leading zero omitted, Abs format (unit mm)*
G04 Created by KiCad (PCBNEW (6.0.0)) date 2022-03-21 15:13:20*
%MOMM*%
%LPD*%
G01*
G04 APERTURE LIST*
%ADD10C,0.150000*%
%ADD11C,0.120000*%
G04 APERTURE END LIST*
D10*
X134055476Y-89352380D02*
X134388809Y-88876190D01*
X134626904Y-89352380D02*
X134626904Y-88352380D01*
X134245952Y-88352380D01*
X134150714Y-88400000D01*
X134103095Y-88447619D01*
X134055476Y-88542857D01*
X134055476Y-88685714D01*
X134103095Y-88780952D01*
X134150714Y-88828571D01*
X134245952Y-88876190D01*
X134626904Y-88876190D01*
X133245952Y-89304761D02*
X133341190Y-89352380D01*
X133531666Y-89352380D01*
X133626904Y-89304761D01*
X133674523Y-89209523D01*
X133674523Y-88828571D01*
X133626904Y-88733333D01*
X133531666Y-88685714D01*
X133341190Y-88685714D01*
X133245952Y-88733333D01*
X133198333Y-88828571D01*
X133198333Y-88923809D01*
X133674523Y-89019047D01*
X132341190Y-89352380D02*
X132341190Y-88352380D01*
X132341190Y-89304761D02*
X132436428Y-89352380D01*
X132626904Y-89352380D01*
X132722142Y-89304761D01*
X132769761Y-89257142D01*
X132817380Y-89161904D01*
X132817380Y-88876190D01*
X132769761Y-88780952D01*
X132722142Y-88733333D01*
X132626904Y-88685714D01*
X132436428Y-88685714D01*
X132341190Y-88733333D01*
X131484047Y-89304761D02*
X131579285Y-89352380D01*
X131769761Y-89352380D01*
X131865000Y-89304761D01*
X131912619Y-89209523D01*
X131912619Y-88828571D01*
X131865000Y-88733333D01*
X131769761Y-88685714D01*
X131579285Y-88685714D01*
X131484047Y-88733333D01*
X131436428Y-88828571D01*
X131436428Y-88923809D01*
X131912619Y-89019047D01*
X131055476Y-89304761D02*
X130960238Y-89352380D01*
X130769761Y-89352380D01*
X130674523Y-89304761D01*
X130626904Y-89209523D01*
X130626904Y-89161904D01*
X130674523Y-89066666D01*
X130769761Y-89019047D01*
X130912619Y-89019047D01*
X131007857Y-88971428D01*
X131055476Y-88876190D01*
X131055476Y-88828571D01*
X131007857Y-88733333D01*
X130912619Y-88685714D01*
X130769761Y-88685714D01*
X130674523Y-88733333D01*
X130198333Y-89352380D02*
X130198333Y-88685714D01*
X130198333Y-88352380D02*
X130245952Y-88400000D01*
X130198333Y-88447619D01*
X130150714Y-88400000D01*
X130198333Y-88352380D01*
X130198333Y-88447619D01*
X129293571Y-88685714D02*
X129293571Y-89495238D01*
X129341190Y-89590476D01*
X129388809Y-89638095D01*
X129484047Y-89685714D01*
X129626904Y-89685714D01*
X129722142Y-89638095D01*
X129293571Y-89304761D02*
X129388809Y-89352380D01*
X129579285Y-89352380D01*
X129674523Y-89304761D01*
X129722142Y-89257142D01*
X129769761Y-89161904D01*
X129769761Y-88876190D01*
X129722142Y-88780952D01*
X129674523Y-88733333D01*
X129579285Y-88685714D01*
X129388809Y-88685714D01*
X129293571Y-88733333D01*
X128817380Y-88685714D02*
X128817380Y-89352380D01*
X128817380Y-88780952D02*
X128769761Y-88733333D01*
X128674523Y-88685714D01*
X128531666Y-88685714D01*
X128436428Y-88733333D01*
X128388809Y-88828571D01*
X128388809Y-89352380D01*
X127531666Y-89304761D02*
X127626904Y-89352380D01*
X127817380Y-89352380D01*
X127912619Y-89304761D01*
X127960238Y-89209523D01*
X127960238Y-88828571D01*
X127912619Y-88733333D01*
X127817380Y-88685714D01*
X127626904Y-88685714D01*
X127531666Y-88733333D01*
X127484047Y-88828571D01*
X127484047Y-88923809D01*
X127960238Y-89019047D01*
X126626904Y-89352380D02*
X126626904Y-88352380D01*
X126626904Y-89304761D02*
X126722142Y-89352380D01*
X126912619Y-89352380D01*
X127007857Y-89304761D01*
X127055476Y-89257142D01*
X127103095Y-89161904D01*
X127103095Y-88876190D01*
X127055476Y-88780952D01*
X127007857Y-88733333D01*
X126912619Y-88685714D01*
X126722142Y-88685714D01*
X126626904Y-88733333D01*
X125388809Y-89352380D02*
X125388809Y-88352380D01*
X125388809Y-88733333D02*
X125293571Y-88685714D01*
X125103095Y-88685714D01*
X125007857Y-88733333D01*
X124960238Y-88780952D01*
X124912619Y-88876190D01*
X124912619Y-89161904D01*
X124960238Y-89257142D01*
X125007857Y-89304761D01*
X125103095Y-89352380D01*
X125293571Y-89352380D01*
X125388809Y-89304761D01*
X124579285Y-88685714D02*
X124341190Y-89352380D01*
X124103095Y-88685714D02*
X124341190Y-89352380D01*
X124436428Y-89590476D01*
X124484047Y-89638095D01*
X124579285Y-89685714D01*
X122960238Y-89352380D02*
X122960238Y-88352380D01*
X122579285Y-88352380D01*
X122484047Y-88400000D01*
X122436428Y-88447619D01*
X122388809Y-88542857D01*
X122388809Y-88685714D01*
X122436428Y-88780952D01*
X122484047Y-88828571D01*
X122579285Y-88876190D01*
X122960238Y-88876190D01*
X121531666Y-89352380D02*
X121531666Y-88828571D01*
X121579285Y-88733333D01*
X121674523Y-88685714D01*
X121865000Y-88685714D01*
X121960238Y-88733333D01*
X121531666Y-89304761D02*
X121626904Y-89352380D01*
X121865000Y-89352380D01*
X121960238Y-89304761D01*
X122007857Y-89209523D01*
X122007857Y-89114285D01*
X121960238Y-89019047D01*
X121865000Y-88971428D01*
X121626904Y-88971428D01*
X121531666Y-88923809D01*
X121055476Y-89352380D02*
X121055476Y-88685714D01*
X121055476Y-88876190D02*
X121007857Y-88780952D01*
X120960238Y-88733333D01*
X120865000Y-88685714D01*
X120769761Y-88685714D01*
X120436428Y-89352380D02*
X120436428Y-88685714D01*
X120436428Y-88352380D02*
X120484047Y-88400000D01*
X120436428Y-88447619D01*
X120388809Y-88400000D01*
X120436428Y-88352380D01*
X120436428Y-88447619D01*
X119960238Y-88685714D02*
X119960238Y-89685714D01*
X119960238Y-88733333D02*
X119865000Y-88685714D01*
X119674523Y-88685714D01*
X119579285Y-88733333D01*
X119531666Y-88780952D01*
X119484047Y-88876190D01*
X119484047Y-89161904D01*
X119531666Y-89257142D01*
X119579285Y-89304761D01*
X119674523Y-89352380D01*
X119865000Y-89352380D01*
X119960238Y-89304761D01*
X118626904Y-89352380D02*
X118626904Y-88828571D01*
X118674523Y-88733333D01*
X118769761Y-88685714D01*
X118960238Y-88685714D01*
X119055476Y-88733333D01*
X118626904Y-89304761D02*
X118722142Y-89352380D01*
X118960238Y-89352380D01*
X119055476Y-89304761D01*
X119103095Y-89209523D01*
X119103095Y-89114285D01*
X119055476Y-89019047D01*
X118960238Y-88971428D01*
X118722142Y-88971428D01*
X118626904Y-88923809D01*
X118007857Y-89352380D02*
X118103095Y-89304761D01*
X118150714Y-89209523D01*
X118150714Y-88352380D01*
X134269761Y-86177380D02*
X134269761Y-85177380D01*
X134031666Y-85177380D01*
X133888809Y-85225000D01*
X133793571Y-85320238D01*
X133745952Y-85415476D01*
X133698333Y-85605952D01*
X133698333Y-85748809D01*
X133745952Y-85939285D01*
X133793571Y-86034523D01*
X133888809Y-86129761D01*
X134031666Y-86177380D01*
X134269761Y-86177380D01*
X132888809Y-86129761D02*
X132984047Y-86177380D01*
X133174523Y-86177380D01*
X133269761Y-86129761D01*
X133317380Y-86034523D01*
X133317380Y-85653571D01*
X133269761Y-85558333D01*
X133174523Y-85510714D01*
X132984047Y-85510714D01*
X132888809Y-85558333D01*
X132841190Y-85653571D01*
X132841190Y-85748809D01*
X133317380Y-85844047D01*
X132460238Y-86129761D02*
X132365000Y-86177380D01*
X132174523Y-86177380D01*
X132079285Y-86129761D01*
X132031666Y-86034523D01*
X132031666Y-85986904D01*
X132079285Y-85891666D01*
X132174523Y-85844047D01*
X132317380Y-85844047D01*
X132412619Y-85796428D01*
X132460238Y-85701190D01*
X132460238Y-85653571D01*
X132412619Y-85558333D01*
X132317380Y-85510714D01*
X132174523Y-85510714D01*
X132079285Y-85558333D01*
X131603095Y-86177380D02*
X131603095Y-85510714D01*
X131603095Y-85177380D02*
X131650714Y-85225000D01*
X131603095Y-85272619D01*
X131555476Y-85225000D01*
X131603095Y-85177380D01*
X131603095Y-85272619D01*
X130698333Y-85510714D02*
X130698333Y-86320238D01*
X130745952Y-86415476D01*
X130793571Y-86463095D01*
X130888809Y-86510714D01*
X131031666Y-86510714D01*
X131126904Y-86463095D01*
X130698333Y-86129761D02*
X130793571Y-86177380D01*
X130984047Y-86177380D01*
X131079285Y-86129761D01*
X131126904Y-86082142D01*
X131174523Y-85986904D01*
X131174523Y-85701190D01*
X131126904Y-85605952D01*
X131079285Y-85558333D01*
X130984047Y-85510714D01*
X130793571Y-85510714D01*
X130698333Y-85558333D01*
X130222142Y-85510714D02*
X130222142Y-86177380D01*
X130222142Y-85605952D02*
X130174523Y-85558333D01*
X130079285Y-85510714D01*
X129936428Y-85510714D01*
X129841190Y-85558333D01*
X129793571Y-85653571D01*
X129793571Y-86177380D01*
X128936428Y-86129761D02*
X129031666Y-86177380D01*
X129222142Y-86177380D01*
X129317380Y-86129761D01*
X129365000Y-86034523D01*
X129365000Y-85653571D01*
X129317380Y-85558333D01*
X129222142Y-85510714D01*
X129031666Y-85510714D01*
X128936428Y-85558333D01*
X128888809Y-85653571D01*
X128888809Y-85748809D01*
X129365000Y-85844047D01*
X128031666Y-86177380D02*
X128031666Y-85177380D01*
X128031666Y-86129761D02*
X128126904Y-86177380D01*
X128317380Y-86177380D01*
X128412619Y-86129761D01*
X128460238Y-86082142D01*
X128507857Y-85986904D01*
X128507857Y-85701190D01*
X128460238Y-85605952D01*
X128412619Y-85558333D01*
X128317380Y-85510714D01*
X128126904Y-85510714D01*
X128031666Y-85558333D01*
X126793571Y-86177380D02*
X126793571Y-85177380D01*
X126793571Y-85558333D02*
X126698333Y-85510714D01*
X126507857Y-85510714D01*
X126412619Y-85558333D01*
X126365000Y-85605952D01*
X126317380Y-85701190D01*
X126317380Y-85986904D01*
X126365000Y-86082142D01*
X126412619Y-86129761D01*
X126507857Y-86177380D01*
X126698333Y-86177380D01*
X126793571Y-86129761D01*
X125984047Y-85510714D02*
X125745952Y-86177380D01*
X125507857Y-85510714D02*
X125745952Y-86177380D01*
X125841190Y-86415476D01*
X125888809Y-86463095D01*
X125984047Y-86510714D01*
X124365000Y-86177380D02*
X124365000Y-85177380D01*
X123793571Y-86177380D01*
X123793571Y-85177380D01*
X122888809Y-86177380D02*
X122888809Y-85653571D01*
X122936428Y-85558333D01*
X123031666Y-85510714D01*
X123222142Y-85510714D01*
X123317380Y-85558333D01*
X122888809Y-86129761D02*
X122984047Y-86177380D01*
X123222142Y-86177380D01*
X123317380Y-86129761D01*
X123365000Y-86034523D01*
X123365000Y-85939285D01*
X123317380Y-85844047D01*
X123222142Y-85796428D01*
X122984047Y-85796428D01*
X122888809Y-85748809D01*
X122412619Y-86177380D02*
X122412619Y-85177380D01*
X122317380Y-85796428D02*
X122031666Y-86177380D01*
X122031666Y-85510714D02*
X122412619Y-85891666D01*
X121174523Y-86177380D02*
X121174523Y-85653571D01*
X121222142Y-85558333D01*
X121317380Y-85510714D01*
X121507857Y-85510714D01*
X121603095Y-85558333D01*
X121174523Y-86129761D02*
X121269761Y-86177380D01*
X121507857Y-86177380D01*
X121603095Y-86129761D01*
X121650714Y-86034523D01*
X121650714Y-85939285D01*
X121603095Y-85844047D01*
X121507857Y-85796428D01*
X121269761Y-85796428D01*
X121174523Y-85748809D01*
X120269761Y-86177380D02*
X120269761Y-85177380D01*
X120269761Y-86129761D02*
X120365000Y-86177380D01*
X120555476Y-86177380D01*
X120650714Y-86129761D01*
X120698333Y-86082142D01*
X120745952Y-85986904D01*
X120745952Y-85701190D01*
X120698333Y-85605952D01*
X120650714Y-85558333D01*
X120555476Y-85510714D01*
X120365000Y-85510714D01*
X120269761Y-85558333D01*
X119650714Y-86177380D02*
X119745952Y-86129761D01*
X119793571Y-86082142D01*
X119841190Y-85986904D01*
X119841190Y-85701190D01*
X119793571Y-85605952D01*
X119745952Y-85558333D01*
X119650714Y-85510714D01*
X119507857Y-85510714D01*
X119412619Y-85558333D01*
X119365000Y-85605952D01*
X119317380Y-85701190D01*
X119317380Y-85986904D01*
X119365000Y-86082142D01*
X119412619Y-86129761D01*
X119507857Y-86177380D01*
X119650714Y-86177380D01*
X118888809Y-85510714D02*
X118888809Y-86177380D01*
X118888809Y-85605952D02*
X118841190Y-85558333D01*
X118745952Y-85510714D01*
X118603095Y-85510714D01*
X118507857Y-85558333D01*
X118460238Y-85653571D01*
X118460238Y-86177380D01*
%TO.C,J7*%
X169632380Y-88058666D02*
X170346666Y-88058666D01*
X170489523Y-88011047D01*
X170584761Y-87915809D01*
X170632380Y-87772952D01*
X170632380Y-87677714D01*
X169632380Y-88439619D02*
X169632380Y-89106285D01*
X170632380Y-88677714D01*
%TO.C,D71*%
X156622380Y-92765714D02*
X155622380Y-92765714D01*
X155622380Y-93003809D01*
X155670000Y-93146666D01*
X155765238Y-93241904D01*
X155860476Y-93289523D01*
X156050952Y-93337142D01*
X156193809Y-93337142D01*
X156384285Y-93289523D01*
X156479523Y-93241904D01*
X156574761Y-93146666D01*
X156622380Y-93003809D01*
X156622380Y-92765714D01*
X155622380Y-93670476D02*
X155622380Y-94337142D01*
X156622380Y-93908571D01*
X156622380Y-95241904D02*
X156622380Y-94670476D01*
X156622380Y-94956190D02*
X155622380Y-94956190D01*
X155765238Y-94860952D01*
X155860476Y-94765714D01*
X155908095Y-94670476D01*
D11*
%TO.C,J7*%
X179070000Y-81392000D02*
X175260000Y-81392000D01*
X179070000Y-94892000D02*
X175260000Y-94892000D01*
%TO.C,D71*%
X155320000Y-97380000D02*
X152020000Y-97380000D01*
X152020000Y-97380000D02*
X152020000Y-91980000D01*
X155320000Y-97380000D02*
X155320000Y-91980000D01*
%TD*%
M02*
