M48
; DRILL file {KiCad (6.0.0)} date Mon Mar 21 15:06:35 2022
; FORMAT={-:-/ absolute / inch / decimal}
; #@! TF.CreationDate,2022-03-21T15:06:35+09:00
; #@! TF.GenerationSoftware,Kicad,Pcbnew,(6.0.0)
; #@! TF.FileFunction,Plated,1,2,PTH
FMAT,2
INCH
; #@! TA.AperFunction,Plated,PTH,ViaDrill
T1C0.0157
; #@! TA.AperFunction,Plated,PTH,ComponentDrill
T2C0.0197
; #@! TA.AperFunction,Plated,PTH,ComponentDrill
T3C0.0256
; #@! TA.AperFunction,Plated,PTH,ComponentDrill
T4C0.0354
; #@! TA.AperFunction,Plated,PTH,ComponentDrill
T5C0.0394
; #@! TA.AperFunction,Plated,PTH,ComponentDrill
T6C0.0433
; #@! TA.AperFunction,Plated,PTH,ComponentDrill
T7C0.1260
%
G90
G05
T1
X1.375Y-2.275
X1.375Y-2.4
X1.375Y-2.8
X1.375Y-2.925
X1.375Y-3.025
X1.375Y-3.675
X1.375Y-3.775
X1.375Y-3.875
X1.375Y-3.975
X1.4389Y-1.12
X1.5Y-1.0
X1.505Y-1.07
X1.525Y-1.675
X1.565Y-1.07
X1.6Y-2.2
X1.625Y-1.3
X1.625Y-1.82
X1.65Y-3.35
X1.665Y-1.14
X1.665Y-1.58
X1.665Y-1.64
X1.705Y-1.07
X1.745Y-1.58
X1.745Y-1.64
X1.75Y-1.2
X1.75Y-1.975
X1.75Y-2.15
X1.785Y-1.07
X1.785Y-1.38
X1.785Y-1.5
X1.785Y-1.72
X1.8Y-1.85
X1.8Y-2.25
X1.825Y-1.325
X1.875Y-1.325
X1.9Y-1.15
X1.9Y-2.0
X1.9Y-2.2
X1.925Y-1.85
X1.93Y-1.535
X1.955Y-1.605
X1.965Y-1.07
X1.97Y-1.415
X1.975Y-1.35
X2.025Y-1.2
X2.025Y-1.6
X2.0496Y-1.5004
X2.05Y-1.775
X2.065Y-1.07
X2.075Y-1.3
X2.0853Y-1.4434
X2.0856Y-1.7581
X2.125Y-1.3
X2.125Y-1.465
X2.15Y-1.375
X2.15Y-1.875
X2.15Y-1.95
X2.175Y-2.0
X2.175Y-2.2
X2.2Y-1.535
X2.2Y-1.575
X2.2Y-1.615
X2.2Y-1.655
X2.2Y-1.695
X2.205Y-1.07
X2.235Y-1.37
X2.24Y-1.535
X2.24Y-1.575
X2.24Y-1.615
X2.24Y-1.655
X2.24Y-1.695
X2.25Y-1.325
X2.25Y-1.85
X2.28Y-1.535
X2.28Y-1.575
X2.28Y-1.615
X2.28Y-1.655
X2.28Y-1.695
X2.305Y-1.07
X2.32Y-1.535
X2.32Y-1.575
X2.32Y-1.615
X2.32Y-1.655
X2.32Y-1.695
X2.325Y-2.125
X2.35Y-1.95
X2.36Y-1.535
X2.36Y-1.575
X2.36Y-1.615
X2.36Y-1.655
X2.36Y-1.695
X2.375Y-1.275
X2.45Y-1.8
X2.475Y-2.05
X2.475Y-2.2
X2.5Y-1.7
X2.5Y-1.9785
X2.525Y-1.625
X2.5423Y-1.6827
X2.5461Y-1.1715
X2.55Y-1.35
X2.55Y-1.5
X2.55Y-1.55
X2.554Y-1.5892
X2.573Y-1.2731
X2.575Y-1.8
X2.5896Y-1.1812
X2.6Y-1.075
X2.6009Y-1.3009
X2.6092Y-1.2188
X2.6459Y-1.4209
X2.675Y-1.625
X2.7Y-1.1
X2.7Y-1.325
X2.7Y-1.5
X2.725Y-1.45
X2.7631Y-1.8209
X2.8Y-1.075
X2.84Y-1.81
X2.85Y-1.375
X2.875Y-1.725
X2.875Y-2.025
X2.875Y-2.2
X2.91Y-1.115
X2.975Y-1.625
X3.0Y-1.5
X3.0Y-2.125
X3.045Y-1.115
X3.1Y-1.55
X3.125Y-1.475
X3.125Y-1.7
X3.125Y-2.025
X3.125Y-2.2
X3.1702Y-1.6798
X3.18Y-1.81
X3.25Y-2.125
X3.2553Y-1.4197
X3.2945Y-1.691
X3.375Y-1.075
X3.375Y-1.125
X3.375Y-1.475
X3.375Y-2.025
X3.375Y-2.2
X3.465Y-1.735
X3.5Y-1.625
X3.525Y-1.075
X3.525Y-1.125
X3.525Y-1.735
X3.6196Y-1.885
X3.625Y-1.825
X3.625Y-2.025
X3.625Y-2.2
X3.65Y-1.45
X3.675Y-1.625
X3.75Y-2.125
X3.825Y-1.575
X3.85Y-1.725
X3.875Y-1.825
X3.875Y-2.025
X3.875Y-2.2
X3.9Y-1.3
X3.9Y-1.5335
X3.925Y-1.075
X3.925Y-1.115
X3.925Y-1.725
X3.975Y-1.425
X3.975Y-1.6
X3.985Y-1.075
X3.985Y-1.115
X4.0Y-2.125
X4.025Y-1.725
X4.045Y-1.075
X4.045Y-1.115
X4.075Y-1.825
X4.1Y-1.3
X4.1Y-1.6
X4.105Y-1.075
X4.105Y-1.115
X4.125Y-1.725
X4.125Y-2.025
X4.125Y-2.2
X4.145Y-1.395
X4.2Y-1.5
X4.2Y-1.85
X4.2264Y-1.1514
X4.375Y-1.275
X4.375Y-1.9785
X4.4Y-2.05
X4.4Y-2.2
X4.425Y-1.425
X4.425Y-1.55
X4.5Y-2.35
X4.525Y-1.275
X4.525Y-1.775
X4.525Y-1.975
X4.6Y-3.35
X4.625Y-1.925
X4.625Y-2.2
X4.65Y-2.35
X4.675Y-1.675
X4.675Y-2.075
X4.75Y-1.875
X4.825Y-1.95
X4.85Y-1.8
X4.875Y-2.225
X4.875Y-2.375
X4.875Y-2.8
X4.875Y-2.925
X4.875Y-3.025
X4.875Y-3.675
X4.875Y-3.775
X4.875Y-3.875
X4.875Y-3.975
T2
X1.3555Y-1.475
X1.3555Y-4.175
X1.3832Y-1.4082
X1.3832Y-1.5418
X1.3832Y-4.1082
X1.3832Y-4.2418
X1.45Y-1.3805
X1.45Y-1.5695
X1.45Y-4.0805
X1.45Y-4.2695
X1.5168Y-1.4082
X1.5168Y-1.5418
X1.5168Y-4.1082
X1.5168Y-4.2418
X1.5445Y-1.475
X1.5445Y-4.175
X4.7055Y-1.475
X4.7055Y-4.175
X4.7332Y-1.4082
X4.7332Y-1.5418
X4.7332Y-4.1082
X4.7332Y-4.2418
X4.8Y-1.3805
X4.8Y-1.5695
X4.8Y-4.0805
X4.8Y-4.2695
X4.8668Y-1.4082
X4.8668Y-1.5418
X4.8668Y-4.1082
X4.8668Y-4.2418
X4.8945Y-1.475
X4.8945Y-4.175
T3
X4.165Y-1.045
X4.165Y-1.095
X4.215Y-1.045
X4.215Y-1.095
X4.265Y-1.045
X4.265Y-1.095
X4.315Y-1.045
X4.315Y-1.095
X4.365Y-1.045
X4.365Y-1.095
X4.415Y-1.045
X4.415Y-1.095
X4.465Y-1.045
X4.465Y-1.095
T4
X3.0097Y-1.355
X3.1081Y-1.355
X3.2066Y-1.355
X3.305Y-1.355
X3.5197Y-1.355
X3.6181Y-1.355
X3.7166Y-1.355
X3.815Y-1.355
X4.7601Y-1.7731
X4.7601Y-2.0881
T5
X1.95Y-1.95
X1.95Y-2.05
X1.95Y-2.15
X1.95Y-2.25
X1.95Y-2.35
X1.95Y-2.45
X1.95Y-2.55
X1.95Y-2.65
X1.95Y-2.75
X1.95Y-2.85
X1.95Y-2.95
X1.95Y-3.05
X1.95Y-3.15
X1.95Y-3.25
X1.95Y-3.35
X1.95Y-3.45
X1.95Y-3.55
X1.95Y-3.65
X1.95Y-3.75
X1.95Y-3.85
X1.95Y-3.95
X1.95Y-4.05
X1.95Y-4.15
X1.95Y-4.25
X2.05Y-1.95
X2.05Y-2.05
X2.05Y-2.15
X2.05Y-2.25
X2.05Y-2.35
X2.05Y-2.45
X2.05Y-2.55
X2.05Y-2.65
X2.05Y-2.75
X2.05Y-2.85
X2.05Y-2.95
X2.05Y-3.05
X2.05Y-3.15
X2.05Y-3.25
X2.05Y-3.35
X2.05Y-3.45
X2.05Y-3.55
X2.05Y-3.65
X2.05Y-3.75
X2.05Y-3.85
X2.05Y-3.95
X2.05Y-4.05
X2.05Y-4.15
X2.05Y-4.25
X2.7Y-1.95
X2.7Y-2.05
X2.7Y-2.15
X2.7Y-2.25
X2.7Y-2.35
X2.7Y-2.45
X2.7Y-2.55
X2.7Y-2.65
X2.7Y-2.75
X2.7Y-2.85
X2.7Y-2.95
X2.7Y-3.05
X2.7Y-3.15
X2.7Y-3.25
X2.7Y-3.35
X2.7Y-3.45
X2.7Y-3.55
X2.7Y-3.65
X2.7Y-3.75
X2.7Y-3.85
X2.7Y-3.95
X2.7Y-4.05
X2.7Y-4.15
X2.7Y-4.25
X2.8Y-1.95
X2.8Y-2.05
X2.8Y-2.15
X2.8Y-2.25
X2.8Y-2.35
X2.8Y-2.45
X2.8Y-2.55
X2.8Y-2.65
X2.8Y-2.75
X2.8Y-2.85
X2.8Y-2.95
X2.8Y-3.05
X2.8Y-3.15
X2.8Y-3.25
X2.8Y-3.35
X2.8Y-3.45
X2.8Y-3.55
X2.8Y-3.65
X2.8Y-3.75
X2.8Y-3.85
X2.8Y-3.95
X2.8Y-4.05
X2.8Y-4.15
X2.8Y-4.25
X3.45Y-1.95
X3.45Y-2.05
X3.45Y-2.15
X3.45Y-2.25
X3.45Y-2.35
X3.45Y-2.45
X3.45Y-2.55
X3.45Y-2.65
X3.45Y-2.75
X3.45Y-2.85
X3.45Y-2.95
X3.45Y-3.05
X3.45Y-3.15
X3.45Y-3.25
X3.45Y-3.35
X3.45Y-3.45
X3.45Y-3.55
X3.45Y-3.65
X3.45Y-3.75
X3.45Y-3.85
X3.45Y-3.95
X3.45Y-4.05
X3.45Y-4.15
X3.45Y-4.25
X3.55Y-1.95
X3.55Y-2.05
X3.55Y-2.15
X3.55Y-2.25
X3.55Y-2.35
X3.55Y-2.45
X3.55Y-2.55
X3.55Y-2.65
X3.55Y-2.75
X3.55Y-2.85
X3.55Y-2.95
X3.55Y-3.05
X3.55Y-3.15
X3.55Y-3.25
X3.55Y-3.35
X3.55Y-3.45
X3.55Y-3.55
X3.55Y-3.65
X3.55Y-3.75
X3.55Y-3.85
X3.55Y-3.95
X3.55Y-4.05
X3.55Y-4.15
X3.55Y-4.25
X4.2Y-1.95
X4.2Y-2.05
X4.2Y-2.15
X4.2Y-2.25
X4.2Y-2.35
X4.2Y-2.45
X4.2Y-2.55
X4.2Y-2.65
X4.2Y-2.75
X4.2Y-2.85
X4.2Y-2.95
X4.2Y-3.05
X4.2Y-3.15
X4.2Y-3.25
X4.2Y-3.35
X4.2Y-3.45
X4.2Y-3.55
X4.2Y-3.65
X4.2Y-3.75
X4.2Y-3.85
X4.2Y-3.95
X4.2Y-4.05
X4.2Y-4.15
X4.2Y-4.25
X4.3Y-1.95
X4.3Y-2.05
X4.3Y-2.15
X4.3Y-2.25
X4.3Y-2.35
X4.3Y-2.45
X4.3Y-2.55
X4.3Y-2.65
X4.3Y-2.75
X4.3Y-2.85
X4.3Y-2.95
X4.3Y-3.05
X4.3Y-3.15
X4.3Y-3.25
X4.3Y-3.35
X4.3Y-3.45
X4.3Y-3.55
X4.3Y-3.65
X4.3Y-3.75
X4.3Y-3.85
X4.3Y-3.95
X4.3Y-4.05
X4.3Y-4.15
X4.3Y-4.25
T6
X1.3628Y-1.875
X1.3628Y-2.1309
X1.54Y-1.875
X1.54Y-2.1309
T7
X1.45Y-1.475
X1.45Y-4.175
X4.8Y-1.475
X4.8Y-4.175
T0
M30
