%TF.GenerationSoftware,KiCad,Pcbnew,(6.0.0)*%
%TF.CreationDate,2022-03-21T15:06:36+09:00*%
%TF.ProjectId,MotorDriver base unit,4d6f746f-7244-4726-9976-657220626173,rev?*%
%TF.SameCoordinates,Original*%
%TF.FileFunction,Soldermask,Top*%
%TF.FilePolarity,Negative*%
%FSLAX46Y46*%
G04 Gerber Fmt 4.6, Leading zero omitted, Abs format (unit mm)*
G04 Created by KiCad (PCBNEW (6.0.0)) date 2022-03-21 15:06:36*
%MOMM*%
%LPD*%
G01*
G04 APERTURE LIST*
G04 Aperture macros list*
%AMRoundRect*
0 Rectangle with rounded corners*
0 $1 Rounding radius*
0 $2 $3 $4 $5 $6 $7 $8 $9 X,Y pos of 4 corners*
0 Add a 4 corners polygon primitive as box body*
4,1,4,$2,$3,$4,$5,$6,$7,$8,$9,$2,$3,0*
0 Add four circle primitives for the rounded corners*
1,1,$1+$1,$2,$3*
1,1,$1+$1,$4,$5*
1,1,$1+$1,$6,$7*
1,1,$1+$1,$8,$9*
0 Add four rect primitives between the rounded corners*
20,1,$1+$1,$2,$3,$4,$5,0*
20,1,$1+$1,$4,$5,$6,$7,0*
20,1,$1+$1,$6,$7,$8,$9,0*
20,1,$1+$1,$8,$9,$2,$3,0*%
%AMFreePoly0*
4,1,9,3.862500,-0.866500,0.737500,-0.866500,0.737500,-0.450000,-0.737500,-0.450000,-0.737500,0.450000,0.737500,0.450000,0.737500,0.866500,3.862500,0.866500,3.862500,-0.866500,3.862500,-0.866500,$1*%
G04 Aperture macros list end*
%ADD10RoundRect,0.250000X-1.500000X-0.550000X1.500000X-0.550000X1.500000X0.550000X-1.500000X0.550000X0*%
%ADD11RoundRect,0.225000X0.250000X-0.225000X0.250000X0.225000X-0.250000X0.225000X-0.250000X-0.225000X0*%
%ADD12RoundRect,0.225000X-0.225000X-0.250000X0.225000X-0.250000X0.225000X0.250000X-0.225000X0.250000X0*%
%ADD13RoundRect,0.225000X0.225000X0.250000X-0.225000X0.250000X-0.225000X-0.250000X0.225000X-0.250000X0*%
%ADD14RoundRect,0.225000X-0.250000X0.225000X-0.250000X-0.225000X0.250000X-0.225000X0.250000X0.225000X0*%
%ADD15RoundRect,0.218750X0.218750X0.256250X-0.218750X0.256250X-0.218750X-0.256250X0.218750X-0.256250X0*%
%ADD16R,1.000000X1.500000*%
%ADD17RoundRect,0.218750X-0.218750X-0.256250X0.218750X-0.256250X0.218750X0.256250X-0.218750X0.256250X0*%
%ADD18O,2.800000X2.000000*%
%ADD19RoundRect,0.450000X0.450000X0.450000X-0.450000X0.450000X-0.450000X-0.450000X0.450000X-0.450000X0*%
%ADD20C,1.800000*%
%ADD21RoundRect,0.200000X-0.200000X-0.275000X0.200000X-0.275000X0.200000X0.275000X-0.200000X0.275000X0*%
%ADD22RoundRect,0.200000X0.200000X0.275000X-0.200000X0.275000X-0.200000X-0.275000X0.200000X-0.275000X0*%
%ADD23C,2.000000*%
%ADD24RoundRect,0.125000X-0.625000X-0.125000X0.625000X-0.125000X0.625000X0.125000X-0.625000X0.125000X0*%
%ADD25RoundRect,0.125000X-0.125000X-0.625000X0.125000X-0.625000X0.125000X0.625000X-0.125000X0.625000X0*%
%ADD26R,2.000000X4.500000*%
%ADD27R,1.000000X1.000000*%
%ADD28O,1.000000X1.000000*%
%ADD29C,0.800000*%
%ADD30C,6.400000*%
%ADD31RoundRect,0.150000X-0.825000X-0.150000X0.825000X-0.150000X0.825000X0.150000X-0.825000X0.150000X0*%
%ADD32R,0.900000X1.300000*%
%ADD33FreePoly0,90.000000*%
%ADD34C,1.000000*%
%ADD35R,1.600000X1.200000*%
%ADD36R,1.700000X1.700000*%
%ADD37O,1.700000X1.700000*%
G04 APERTURE END LIST*
D10*
%TO.C,C3*%
X108331000Y-35941000D03*
X113931000Y-35941000D03*
%TD*%
%TO.C,C4*%
X108331000Y-43307000D03*
X113931000Y-43307000D03*
%TD*%
D11*
%TO.C,C5*%
X66675000Y-42050000D03*
X66675000Y-40500000D03*
%TD*%
D10*
%TO.C,C7*%
X70104000Y-43561000D03*
X75704000Y-43561000D03*
%TD*%
D12*
%TO.C,C9*%
X48742000Y-43434000D03*
X50292000Y-43434000D03*
%TD*%
%TO.C,C10*%
X48742000Y-44958000D03*
X50292000Y-44958000D03*
%TD*%
D13*
%TO.C,C12*%
X51816000Y-36957000D03*
X50266000Y-36957000D03*
%TD*%
D12*
%TO.C,C14*%
X36449000Y-32512000D03*
X37999000Y-32512000D03*
%TD*%
%TO.C,C15*%
X43053000Y-32512000D03*
X44603000Y-32512000D03*
%TD*%
D14*
%TO.C,C16*%
X46863000Y-44958000D03*
X46863000Y-46508000D03*
%TD*%
D11*
%TO.C,C17*%
X42545000Y-51575000D03*
X42545000Y-50025000D03*
%TD*%
D12*
%TO.C,C18*%
X49657000Y-32512000D03*
X51207000Y-32512000D03*
%TD*%
D11*
%TO.C,C19*%
X46863000Y-36576000D03*
X46863000Y-35026000D03*
%TD*%
D12*
%TO.C,C20*%
X56261000Y-32512000D03*
X57811000Y-32512000D03*
%TD*%
D15*
%TO.C,D1*%
X120802500Y-60960000D03*
X119227500Y-60960000D03*
%TD*%
%TO.C,D2*%
X120802500Y-58420000D03*
X119227500Y-58420000D03*
%TD*%
D16*
%TO.C,D4*%
X36449000Y-30300000D03*
X39649000Y-30300000D03*
X39649000Y-25400000D03*
X36449000Y-25400000D03*
%TD*%
D17*
%TO.C,D6*%
X94615000Y-44323000D03*
X96190000Y-44323000D03*
%TD*%
D16*
%TO.C,D7*%
X43053000Y-30300000D03*
X46253000Y-30300000D03*
X46253000Y-25400000D03*
X43053000Y-25400000D03*
%TD*%
D17*
%TO.C,D8*%
X94615000Y-42545000D03*
X96190000Y-42545000D03*
%TD*%
D16*
%TO.C,D10*%
X49657000Y-30300000D03*
X52857000Y-30300000D03*
X52857000Y-25400000D03*
X49657000Y-25400000D03*
%TD*%
%TO.C,D13*%
X56261000Y-30300000D03*
X59461000Y-30300000D03*
X59461000Y-25400000D03*
X56261000Y-25400000D03*
%TD*%
D17*
%TO.C,FB1*%
X48717000Y-41910000D03*
X50292000Y-41910000D03*
%TD*%
D18*
%TO.C,J3*%
X80197000Y-27917000D03*
D19*
X83947000Y-34417000D03*
D20*
X81447000Y-34417000D03*
X78947000Y-34417000D03*
X76447000Y-34417000D03*
%TD*%
D18*
%TO.C,J4*%
X93151000Y-27917000D03*
D19*
X96901000Y-34417000D03*
D20*
X94401000Y-34417000D03*
X91901000Y-34417000D03*
X89401000Y-34417000D03*
%TD*%
D21*
%TO.C,R1*%
X115380000Y-60960000D03*
X117030000Y-60960000D03*
%TD*%
%TO.C,R2*%
X115380000Y-58420000D03*
X117030000Y-58420000D03*
%TD*%
%TO.C,R5*%
X91567000Y-44323000D03*
X93217000Y-44323000D03*
%TD*%
%TO.C,R6*%
X91567000Y-42545000D03*
X93217000Y-42545000D03*
%TD*%
%TO.C,R10*%
X88773000Y-39243000D03*
X90423000Y-39243000D03*
%TD*%
D22*
%TO.C,R15*%
X51816000Y-35179000D03*
X50166000Y-35179000D03*
%TD*%
D23*
%TO.C,SW1*%
X39116000Y-47625000D03*
X39116000Y-54125000D03*
X34616000Y-54125000D03*
X34616000Y-47625000D03*
%TD*%
D24*
%TO.C,U2*%
X53731000Y-38110000D03*
X53731000Y-38910000D03*
X53731000Y-39710000D03*
X53731000Y-40510000D03*
X53731000Y-41310000D03*
X53731000Y-42110000D03*
X53731000Y-42910000D03*
X53731000Y-43710000D03*
D25*
X55106000Y-45085000D03*
X55906000Y-45085000D03*
X56706000Y-45085000D03*
X57506000Y-45085000D03*
X58306000Y-45085000D03*
X59106000Y-45085000D03*
X59906000Y-45085000D03*
X60706000Y-45085000D03*
D24*
X62081000Y-43710000D03*
X62081000Y-42910000D03*
X62081000Y-42110000D03*
X62081000Y-41310000D03*
X62081000Y-40510000D03*
X62081000Y-39710000D03*
X62081000Y-38910000D03*
X62081000Y-38110000D03*
D25*
X60706000Y-36735000D03*
X59906000Y-36735000D03*
X59106000Y-36735000D03*
X58306000Y-36735000D03*
X57506000Y-36735000D03*
X56706000Y-36735000D03*
X55906000Y-36735000D03*
X55106000Y-36735000D03*
%TD*%
D26*
%TO.C,Y1*%
X43307000Y-45076000D03*
X43307000Y-36576000D03*
%TD*%
D27*
%TO.C,J1*%
X113411000Y-26543000D03*
D28*
X113411000Y-27813000D03*
X112141000Y-26543000D03*
X112141000Y-27813000D03*
X110871000Y-26543000D03*
X110871000Y-27813000D03*
X109601000Y-26543000D03*
X109601000Y-27813000D03*
X108331000Y-26543000D03*
X108331000Y-27813000D03*
X107061000Y-26543000D03*
X107061000Y-27813000D03*
X105791000Y-26543000D03*
X105791000Y-27813000D03*
%TD*%
D12*
%TO.C,C13*%
X83680000Y-44831000D03*
X85230000Y-44831000D03*
%TD*%
D29*
%TO.C,H3*%
X36830000Y-39865000D03*
X38527056Y-39162056D03*
X34430000Y-37465000D03*
D30*
X36830000Y-37465000D03*
D29*
X39230000Y-37465000D03*
X35132944Y-39162056D03*
X36830000Y-35065000D03*
X35132944Y-35767944D03*
X38527056Y-35767944D03*
%TD*%
%TO.C,H4*%
X121920000Y-35065000D03*
X124320000Y-37465000D03*
X120222944Y-39162056D03*
X120222944Y-35767944D03*
X123617056Y-39162056D03*
D30*
X121920000Y-37465000D03*
D29*
X119520000Y-37465000D03*
X123617056Y-35767944D03*
X121920000Y-39865000D03*
%TD*%
D31*
%TO.C,U4*%
X81537000Y-39243000D03*
X81537000Y-40513000D03*
X81537000Y-41783000D03*
X81537000Y-43053000D03*
X86487000Y-43053000D03*
X86487000Y-41783000D03*
X86487000Y-40513000D03*
X86487000Y-39243000D03*
%TD*%
D32*
%TO.C,U1*%
X67207000Y-29336000D03*
D33*
X68707000Y-29248500D03*
D32*
X70207000Y-29336000D03*
%TD*%
D14*
%TO.C,C8*%
X70231000Y-36830000D03*
X70231000Y-38380000D03*
%TD*%
%TO.C,C11*%
X67183000Y-36830000D03*
X67183000Y-38380000D03*
%TD*%
D32*
%TO.C,U3*%
X67207000Y-34924000D03*
D33*
X68707000Y-34836500D03*
D32*
X70207000Y-34924000D03*
%TD*%
D17*
%TO.C,D51*%
X37947500Y-60960000D03*
X39522500Y-60960000D03*
%TD*%
%TO.C,D52*%
X37947500Y-58420000D03*
X39522500Y-58420000D03*
%TD*%
D15*
%TO.C,R65*%
X43332500Y-60960000D03*
X41757500Y-60960000D03*
%TD*%
%TO.C,R66*%
X43332500Y-58420000D03*
X41757500Y-58420000D03*
%TD*%
D22*
%TO.C,R69*%
X97980000Y-38735000D03*
X96330000Y-38735000D03*
%TD*%
D34*
%TO.C,SW2*%
X120907000Y-53038000D03*
X120907000Y-45038000D03*
D35*
X119507000Y-54038000D03*
X122307000Y-52038000D03*
X122307000Y-48038000D03*
X119507000Y-46038000D03*
%TD*%
D29*
%TO.C,H1*%
X36830000Y-108445000D03*
X39230000Y-106045000D03*
X34430000Y-106045000D03*
X35132944Y-104347944D03*
X35132944Y-107742056D03*
X38527056Y-104347944D03*
X36830000Y-103645000D03*
X38527056Y-107742056D03*
D30*
X36830000Y-106045000D03*
%TD*%
D29*
%TO.C,H2*%
X121920000Y-103645000D03*
X120222944Y-104347944D03*
X121920000Y-108445000D03*
X124320000Y-106045000D03*
X123617056Y-107742056D03*
X119520000Y-106045000D03*
X123617056Y-104347944D03*
D30*
X121920000Y-106045000D03*
D29*
X120222944Y-107742056D03*
%TD*%
D36*
%TO.C,J7*%
X49530000Y-107950000D03*
D37*
X52070000Y-107950000D03*
X49530000Y-105410000D03*
X52070000Y-105410000D03*
X49530000Y-102870000D03*
X52070000Y-102870000D03*
X49530000Y-100330000D03*
X52070000Y-100330000D03*
X49530000Y-97790000D03*
X52070000Y-97790000D03*
X49530000Y-95250000D03*
X52070000Y-95250000D03*
X49530000Y-92710000D03*
X52070000Y-92710000D03*
X49530000Y-90170000D03*
X52070000Y-90170000D03*
X49530000Y-87630000D03*
X52070000Y-87630000D03*
X49530000Y-85090000D03*
X52070000Y-85090000D03*
X49530000Y-82550000D03*
X52070000Y-82550000D03*
X49530000Y-80010000D03*
X52070000Y-80010000D03*
X49530000Y-77470000D03*
X52070000Y-77470000D03*
X49530000Y-74930000D03*
X52070000Y-74930000D03*
X49530000Y-72390000D03*
X52070000Y-72390000D03*
X49530000Y-69850000D03*
X52070000Y-69850000D03*
X49530000Y-67310000D03*
X52070000Y-67310000D03*
X49530000Y-64770000D03*
X52070000Y-64770000D03*
X49530000Y-62230000D03*
X52070000Y-62230000D03*
X49530000Y-59690000D03*
X52070000Y-59690000D03*
X49530000Y-57150000D03*
X52070000Y-57150000D03*
X49530000Y-54610000D03*
X52070000Y-54610000D03*
X49530000Y-52070000D03*
X52070000Y-52070000D03*
X49530000Y-49530000D03*
X52070000Y-49530000D03*
%TD*%
D36*
%TO.C,J8*%
X68580000Y-107950000D03*
D37*
X71120000Y-107950000D03*
X68580000Y-105410000D03*
X71120000Y-105410000D03*
X68580000Y-102870000D03*
X71120000Y-102870000D03*
X68580000Y-100330000D03*
X71120000Y-100330000D03*
X68580000Y-97790000D03*
X71120000Y-97790000D03*
X68580000Y-95250000D03*
X71120000Y-95250000D03*
X68580000Y-92710000D03*
X71120000Y-92710000D03*
X68580000Y-90170000D03*
X71120000Y-90170000D03*
X68580000Y-87630000D03*
X71120000Y-87630000D03*
X68580000Y-85090000D03*
X71120000Y-85090000D03*
X68580000Y-82550000D03*
X71120000Y-82550000D03*
X68580000Y-80010000D03*
X71120000Y-80010000D03*
X68580000Y-77470000D03*
X71120000Y-77470000D03*
X68580000Y-74930000D03*
X71120000Y-74930000D03*
X68580000Y-72390000D03*
X71120000Y-72390000D03*
X68580000Y-69850000D03*
X71120000Y-69850000D03*
X68580000Y-67310000D03*
X71120000Y-67310000D03*
X68580000Y-64770000D03*
X71120000Y-64770000D03*
X68580000Y-62230000D03*
X71120000Y-62230000D03*
X68580000Y-59690000D03*
X71120000Y-59690000D03*
X68580000Y-57150000D03*
X71120000Y-57150000D03*
X68580000Y-54610000D03*
X71120000Y-54610000D03*
X68580000Y-52070000D03*
X71120000Y-52070000D03*
X68580000Y-49530000D03*
X71120000Y-49530000D03*
%TD*%
D36*
%TO.C,J9*%
X87630000Y-107950000D03*
D37*
X90170000Y-107950000D03*
X87630000Y-105410000D03*
X90170000Y-105410000D03*
X87630000Y-102870000D03*
X90170000Y-102870000D03*
X87630000Y-100330000D03*
X90170000Y-100330000D03*
X87630000Y-97790000D03*
X90170000Y-97790000D03*
X87630000Y-95250000D03*
X90170000Y-95250000D03*
X87630000Y-92710000D03*
X90170000Y-92710000D03*
X87630000Y-90170000D03*
X90170000Y-90170000D03*
X87630000Y-87630000D03*
X90170000Y-87630000D03*
X87630000Y-85090000D03*
X90170000Y-85090000D03*
X87630000Y-82550000D03*
X90170000Y-82550000D03*
X87630000Y-80010000D03*
X90170000Y-80010000D03*
X87630000Y-77470000D03*
X90170000Y-77470000D03*
X87630000Y-74930000D03*
X90170000Y-74930000D03*
X87630000Y-72390000D03*
X90170000Y-72390000D03*
X87630000Y-69850000D03*
X90170000Y-69850000D03*
X87630000Y-67310000D03*
X90170000Y-67310000D03*
X87630000Y-64770000D03*
X90170000Y-64770000D03*
X87630000Y-62230000D03*
X90170000Y-62230000D03*
X87630000Y-59690000D03*
X90170000Y-59690000D03*
X87630000Y-57150000D03*
X90170000Y-57150000D03*
X87630000Y-54610000D03*
X90170000Y-54610000D03*
X87630000Y-52070000D03*
X90170000Y-52070000D03*
X87630000Y-49530000D03*
X90170000Y-49530000D03*
%TD*%
D36*
%TO.C,J10*%
X106680000Y-107950000D03*
D37*
X109220000Y-107950000D03*
X106680000Y-105410000D03*
X109220000Y-105410000D03*
X106680000Y-102870000D03*
X109220000Y-102870000D03*
X106680000Y-100330000D03*
X109220000Y-100330000D03*
X106680000Y-97790000D03*
X109220000Y-97790000D03*
X106680000Y-95250000D03*
X109220000Y-95250000D03*
X106680000Y-92710000D03*
X109220000Y-92710000D03*
X106680000Y-90170000D03*
X109220000Y-90170000D03*
X106680000Y-87630000D03*
X109220000Y-87630000D03*
X106680000Y-85090000D03*
X109220000Y-85090000D03*
X106680000Y-82550000D03*
X109220000Y-82550000D03*
X106680000Y-80010000D03*
X109220000Y-80010000D03*
X106680000Y-77470000D03*
X109220000Y-77470000D03*
X106680000Y-74930000D03*
X109220000Y-74930000D03*
X106680000Y-72390000D03*
X109220000Y-72390000D03*
X106680000Y-69850000D03*
X109220000Y-69850000D03*
X106680000Y-67310000D03*
X109220000Y-67310000D03*
X106680000Y-64770000D03*
X109220000Y-64770000D03*
X106680000Y-62230000D03*
X109220000Y-62230000D03*
X106680000Y-59690000D03*
X109220000Y-59690000D03*
X106680000Y-57150000D03*
X109220000Y-57150000D03*
X106680000Y-54610000D03*
X109220000Y-54610000D03*
X106680000Y-52070000D03*
X109220000Y-52070000D03*
X106680000Y-49530000D03*
X109220000Y-49530000D03*
%TD*%
D17*
%TO.C,D3*%
X37947500Y-63500000D03*
X39522500Y-63500000D03*
%TD*%
D15*
%TO.C,D5*%
X120802500Y-63500000D03*
X119227500Y-63500000D03*
%TD*%
D22*
%TO.C,R3*%
X43370000Y-63500000D03*
X41720000Y-63500000D03*
%TD*%
D21*
%TO.C,R4*%
X115380000Y-63500000D03*
X117030000Y-63500000D03*
%TD*%
D14*
%TO.C,C2*%
X72390000Y-36830000D03*
X72390000Y-38380000D03*
%TD*%
M02*
